<svg width="368" height="65" viewBox="0 0 368 65" fill="none" xmlns="http://www.w3.org/2000/svg">
<path d="M163.692 11.2327C161.573 11.2363 159.502 11.8712 157.741 13.0571C155.981 14.2429 154.61 15.9265 153.801 17.8951C152.993 19.8637 152.783 22.0289 153.199 24.1171C153.615 26.2052 154.638 28.1226 156.139 29.6269C157.639 31.1312 159.549 32.1548 161.628 32.5685C163.708 32.9822 165.862 32.7673 167.82 31.951C169.777 31.1347 171.45 29.7536 172.627 27.9823C173.804 26.211 174.431 24.129 174.43 21.9995C174.429 20.5841 174.15 19.1829 173.61 17.8758C173.069 16.5687 172.278 15.3814 171.281 14.3816C170.284 13.3818 169.1 12.5891 167.798 12.0488C166.496 11.5086 165.101 11.2312 163.692 11.2327ZM163.692 27.8229C162.546 27.8229 161.425 27.4813 160.472 26.8414C159.519 26.2016 158.776 25.2921 158.338 24.228C157.899 23.1639 157.784 21.993 158.008 20.8634C158.231 19.7338 158.783 18.6961 159.594 17.8817C160.405 17.0673 161.437 16.5127 162.562 16.288C163.686 16.0633 164.851 16.1786 165.91 16.6194C166.969 17.0601 167.875 17.8065 168.511 18.7642C169.148 19.7218 169.488 20.8477 169.488 21.9995C169.486 23.5433 168.875 25.0234 167.788 26.1151C166.702 27.2067 165.229 27.8209 163.692 27.8229Z" fill="black"/>
<path d="M277.963 11.1957C275.446 11.1986 273.033 12.2047 271.254 13.9932C269.474 15.7816 268.474 18.2062 268.472 20.735V30.2964C268.459 30.6291 268.513 30.9609 268.631 31.272C268.749 31.5831 268.928 31.8671 269.158 32.107C269.388 32.3469 269.663 32.5377 269.968 32.668C270.273 32.7984 270.601 32.8656 270.932 32.8656C271.263 32.8656 271.591 32.7984 271.896 32.668C272.201 32.5377 272.477 32.3469 272.706 32.107C272.936 31.8671 273.115 31.5831 273.233 31.272C273.351 30.9609 273.405 30.6291 273.392 30.2964V20.735C273.426 19.5391 273.922 18.4036 274.776 17.5698C275.63 16.7359 276.774 16.2695 277.965 16.2695C279.155 16.2695 280.299 16.7359 281.153 17.5698C282.007 18.4036 282.503 19.5391 282.537 20.735V30.2742C282.524 30.6069 282.578 30.9387 282.696 31.2498C282.814 31.5609 282.993 31.8449 283.223 32.0848C283.452 32.3247 283.728 32.5155 284.033 32.6459C284.338 32.7762 284.666 32.8434 284.997 32.8434C285.328 32.8434 285.656 32.7762 285.961 32.6459C286.266 32.5155 286.541 32.3247 286.771 32.0848C287.001 31.8449 287.18 31.5609 287.298 31.2498C287.416 30.9387 287.47 30.6069 287.457 30.2742V20.735C287.455 18.2056 286.454 15.7804 284.674 13.9918C282.894 12.2033 280.48 11.1977 277.963 11.1957Z" fill="black"/>
<path d="M62.5263 11.2475C60.0095 11.2504 57.5967 12.2565 55.8174 14.0449C54.038 15.8333 53.0376 18.258 53.0357 20.7867V30.3482C53.0229 30.6808 53.077 31.0126 53.1949 31.3237C53.3127 31.6348 53.4919 31.9188 53.7216 32.1587C53.9513 32.3986 54.2268 32.5895 54.5317 32.7198C54.8365 32.8502 55.1644 32.9174 55.4957 32.9174C55.827 32.9174 56.155 32.8502 56.4598 32.7198C56.7647 32.5895 57.0402 32.3986 57.2699 32.1587C57.4996 31.9188 57.6787 31.6348 57.7966 31.3237C57.9145 31.0126 57.9686 30.6808 57.9558 30.3482V20.7867C57.9558 19.5688 58.4373 18.4008 59.2945 17.5396C60.1516 16.6784 61.3141 16.1946 62.5263 16.1946C63.7385 16.1946 64.901 16.6784 65.7582 17.5396C66.6153 18.4008 67.0968 19.5688 67.0968 20.7867C67.0968 21.4428 67.3562 22.0719 67.8179 22.5358C68.2796 22.9997 68.9058 23.2603 69.5587 23.2603C70.2117 23.2603 70.8379 22.9997 71.2996 22.5358C71.7613 22.0719 72.0206 21.4428 72.0206 20.7867C72.0177 18.2577 71.0165 15.833 69.2366 14.0447C67.4567 12.2564 65.0435 11.2504 62.5263 11.2475Z" fill="black"/>
<path d="M102.303 11.1957C100.98 11.1956 99.672 11.4738 98.4627 12.0126C97.2534 12.5513 96.1698 13.3386 95.2817 14.3237C93.9946 12.8934 92.3062 11.8888 90.4393 11.4424C88.5723 10.9959 86.6145 11.1287 84.8242 11.8231C83.0338 12.5174 81.495 13.7408 80.4109 15.3319C79.3267 16.9229 78.748 18.8068 78.7513 20.735V30.2964C78.7385 30.6291 78.7926 30.9609 78.9105 31.272C79.0284 31.5831 79.2075 31.8671 79.4372 32.107C79.6669 32.3469 79.9424 32.5377 80.2473 32.668C80.5521 32.7984 80.88 32.8656 81.2113 32.8656C81.5427 32.8656 81.8706 32.7984 82.1754 32.668C82.4803 32.5377 82.7558 32.3469 82.9855 32.107C83.2152 31.8671 83.3944 31.5831 83.5122 31.272C83.6301 30.9609 83.6842 30.6291 83.6714 30.2964V20.735C83.6832 19.5475 84.1521 18.4106 84.9797 17.5628C85.8073 16.7149 86.9295 16.2219 88.111 16.187C89.2924 16.1521 90.4415 16.578 91.3173 17.3756C92.193 18.1731 92.7275 19.2803 92.8088 20.4651C92.8088 20.5575 92.8088 20.6462 92.8088 20.735V26.5362C92.8088 27.1916 93.0676 27.8202 93.5285 28.2839C93.9894 28.7477 94.6147 29.0087 95.267 29.0097H95.3111C95.9634 29.0087 96.5887 28.7477 97.0496 28.2839C97.5105 27.8202 97.7694 27.1916 97.7694 26.5362V20.735C97.7694 20.6462 97.7694 20.5575 97.7694 20.4651C97.8506 19.2803 98.3851 18.1731 99.2609 17.3756C100.137 16.578 101.286 16.1521 102.467 16.187C103.649 16.2219 104.771 16.7149 105.598 17.5628C106.426 18.4106 106.895 19.5475 106.907 20.735V30.2964C106.894 30.6291 106.948 30.9609 107.066 31.272C107.184 31.5831 107.363 31.8671 107.593 32.107C107.822 32.3469 108.098 32.5377 108.403 32.668C108.708 32.7984 109.035 32.8656 109.367 32.8656C109.698 32.8656 110.026 32.7984 110.331 32.668C110.636 32.5377 110.911 32.3469 111.141 32.107C111.371 31.8671 111.55 31.5831 111.668 31.272C111.785 30.9609 111.84 30.6291 111.827 30.2964V20.735C111.826 19.48 111.579 18.2376 111.099 17.0788C110.62 15.9199 109.918 14.8674 109.033 13.9814C108.149 13.0954 107.099 12.3933 105.944 11.9153C104.789 11.4373 103.552 11.1928 102.303 11.1957Z" fill="black"/>
<path d="M333.725 11.0922C332.091 11.0916 330.478 11.4667 329.01 12.1886C327.541 12.9105 326.257 13.9601 325.255 15.2573C324.252 16.5544 323.558 18.0647 323.226 19.6727C322.894 21.2806 322.932 22.9437 323.337 24.5346C323.743 26.1255 324.505 27.6022 325.565 28.8517C326.626 30.1013 327.957 31.0906 329.457 31.744C330.956 32.3974 332.585 32.6976 334.217 32.6216C335.85 32.5457 337.444 32.0956 338.877 31.3058C339.388 30.9608 339.752 30.4358 339.897 29.8345C340.042 29.2332 339.957 28.5992 339.66 28.0575C339.362 27.5158 338.873 27.1058 338.29 26.9084C337.706 26.711 337.07 26.7404 336.507 26.991C335.808 27.375 335.038 27.6102 334.244 27.6817C333.451 27.7533 332.651 27.6596 331.895 27.4067C331.139 27.1538 330.443 26.7469 329.851 26.2116C329.258 25.6763 328.782 25.0241 328.452 24.2956H341.284C341.607 24.2951 341.928 24.2305 342.227 24.1055C342.525 23.9805 342.797 23.7976 343.025 23.5671C343.253 23.3367 343.434 23.0633 343.557 22.7626C343.68 22.4619 343.743 22.1397 343.742 21.8146C343.742 17.8436 342.141 15.3848 340.798 14.0205C338.917 12.1451 336.375 11.0925 333.725 11.0922ZM328.503 19.3447C328.979 18.3596 329.721 17.5288 330.645 16.9469C331.568 16.3651 332.635 16.0557 333.725 16.0541C335.063 16.0616 336.346 16.592 337.302 17.533C337.809 18.0475 338.197 18.6689 338.436 19.3521L328.503 19.3447Z" fill="black"/>
<path d="M366.93 23.4932C365.998 22.1741 364.647 21.213 363.099 20.7682C361.181 20.2136 357.579 18.6607 356.957 18.3871C356.431 18.0913 356.158 17.7327 356.158 17.5219C356.158 17.045 357.314 16.1317 359.128 16.1317C360.515 16.1317 361.546 16.6604 361.947 17.1818C362.355 17.6742 362.938 17.9882 363.572 18.0576C364.206 18.127 364.842 17.9465 365.346 17.5539C365.851 17.1614 366.184 16.5875 366.275 15.9532C366.366 15.319 366.209 14.6738 365.837 14.1536C364.405 12.3049 361.899 11.1957 359.128 11.1957C354.712 11.1957 351.238 13.9761 351.238 17.5293C351.238 19.6701 352.541 21.6408 354.727 22.8055L354.808 22.8462L354.892 22.8832C355.073 22.9645 359.33 24.828 361.733 25.5268C362.267 25.6746 362.722 26.0246 363.003 26.5029C362.576 27.0501 361.137 27.8303 359.128 27.8303C357.119 27.8303 355.529 26.9503 355.08 26.0777C354.933 25.7826 354.729 25.52 354.479 25.3054C354.23 25.0908 353.94 24.9286 353.627 24.8282C353.314 24.7278 352.985 24.6914 352.658 24.721C352.33 24.7506 352.013 24.8457 351.723 25.0006C351.433 25.1555 351.176 25.3672 350.969 25.6231C350.762 25.879 350.607 26.1741 350.515 26.4908C350.423 26.8076 350.395 27.1396 350.433 27.4674C350.47 27.7953 350.573 28.1122 350.734 28.3997C352.14 31.0581 355.441 32.7774 359.139 32.7774C363.408 32.7774 366.992 30.6736 367.861 27.6602C368.218 26.3735 367.883 24.8576 366.93 23.4932Z" fill="black"/>
<path d="M130.569 20.7682C128.652 20.2136 125.049 18.6607 124.427 18.3871C123.901 18.0913 123.629 17.7327 123.629 17.5219C123.629 17.045 124.784 16.1317 126.598 16.1317C127.986 16.1317 129.016 16.6604 129.417 17.1818C129.825 17.6742 130.408 17.9882 131.042 18.0576C131.676 18.127 132.312 17.9465 132.817 17.5539C133.321 17.1614 133.654 16.5875 133.745 15.9532C133.837 15.319 133.679 14.6738 133.307 14.1536C131.875 12.3049 129.369 11.1957 126.598 11.1957C122.182 11.1957 118.708 13.9761 118.708 17.5293C118.708 19.6701 120.011 21.6408 122.193 22.8055L122.363 22.8868C122.543 22.9645 126.801 24.828 129.204 25.5268C129.737 25.6746 130.192 26.0246 130.473 26.5029C130.046 27.0501 128.607 27.8303 126.598 27.8303C124.589 27.8303 122.999 26.9503 122.55 26.0777C122.244 25.4991 121.721 25.0666 121.097 24.8752C120.473 24.6838 119.799 24.7493 119.224 25.0572C118.648 25.3651 118.217 25.8903 118.027 26.5171C117.836 27.1439 117.901 27.8211 118.208 28.3997C119.599 31.0581 122.911 32.77 126.591 32.77C130.86 32.77 134.444 30.6662 135.312 27.6528C135.68 26.3735 135.346 24.8576 134.392 23.4932C133.462 22.1755 132.114 21.2146 130.569 20.7682Z" fill="black"/>
<path d="M313.368 2.77191e-06C313.044 -0.000484073 312.724 0.063164 312.425 0.187299C312.126 0.311435 311.854 0.493617 311.626 0.723404C311.397 0.953192 311.216 1.22607 311.092 1.52639C310.969 1.82672 310.905 2.14859 310.906 2.47356V12.9409C308.903 11.6471 306.529 11.0601 304.157 11.2727C301.786 11.4853 299.553 12.4853 297.81 14.1149C296.067 15.7444 294.914 17.9108 294.532 20.272C294.151 22.6332 294.563 25.0547 295.703 27.1545C296.844 29.2543 298.648 30.9127 300.83 31.868C303.013 32.8232 305.45 33.0209 307.757 32.4299C310.064 31.8389 312.11 30.4928 313.571 28.6041C315.032 26.7154 315.825 24.3916 315.826 21.9995V2.47356C315.826 2.1489 315.763 1.82733 315.64 1.52725C315.516 1.22716 315.335 0.954453 315.107 0.724714C314.879 0.494975 314.608 0.312716 314.309 0.188363C314.011 0.0640095 313.691 2.40813e-06 313.368 2.77191e-06ZM305.11 27.8229C303.963 27.8229 302.843 27.4813 301.89 26.8414C300.937 26.2016 300.194 25.2921 299.755 24.228C299.316 23.1639 299.202 21.993 299.425 20.8634C299.649 19.7338 300.201 18.6961 301.011 17.8817C301.822 17.0673 302.855 16.5127 303.979 16.288C305.103 16.0633 306.269 16.1786 307.328 16.6194C308.387 17.0601 309.292 17.8065 309.929 18.7642C310.566 19.7218 310.906 20.8477 310.906 21.9995C310.905 23.5436 310.294 25.0243 309.207 26.1161C308.12 27.208 306.647 27.8219 305.11 27.8229Z" fill="black"/>
<path d="M192.179 3.47185C190.043 3.47381 187.995 4.32703 186.484 5.84435C184.973 7.36166 184.123 9.41915 184.12 11.5654V19.1784C184.12 19.2708 184.12 19.3595 184.12 19.4483H179.95C179.296 19.4483 178.669 19.7093 178.207 20.1738C177.745 20.6384 177.485 21.2685 177.485 21.9255C177.485 22.5825 177.745 23.2126 178.207 23.6772C178.669 24.1418 179.296 24.4028 179.95 24.4028H184.215V30.3186C184.203 30.6512 184.257 30.983 184.375 31.2941C184.493 31.6053 184.672 31.8893 184.901 32.1291C185.131 32.369 185.407 32.5599 185.711 32.6902C186.016 32.8206 186.344 32.8878 186.676 32.8878C187.007 32.8878 187.335 32.8206 187.64 32.6902C187.944 32.5599 188.22 32.369 188.45 32.1291C188.679 31.8893 188.859 31.6053 188.976 31.2941C189.094 30.983 189.148 30.6512 189.136 30.3186V24.4028H193.379C193.71 24.4156 194.04 24.3612 194.35 24.2428C194.659 24.1244 194.942 23.9444 195.181 23.7136C195.419 23.4828 195.609 23.206 195.739 22.8997C195.869 22.5934 195.936 22.264 195.936 21.9311C195.936 21.5982 195.869 21.2687 195.739 20.9624C195.609 20.6561 195.419 20.3793 195.181 20.1485C194.942 19.9177 194.659 19.7377 194.35 19.6193C194.04 19.5009 193.71 19.4465 193.379 19.4594H189.117V14.9338C189.115 14.7319 189.091 14.531 189.044 14.3348V11.5654C189.11 10.7775 189.468 10.0432 190.047 9.50803C190.626 8.97286 191.385 8.67585 192.172 8.67585C192.959 8.67585 193.717 8.97286 194.296 9.50803C194.876 10.0432 195.234 10.7775 195.3 11.5654C195.287 11.8981 195.341 12.2299 195.459 12.541C195.577 12.8521 195.756 13.1361 195.985 13.376C196.215 13.6159 196.491 13.8067 196.796 13.9371C197.1 14.0674 197.428 14.1346 197.76 14.1346C198.091 14.1346 198.419 14.0674 198.724 13.9371C199.029 13.8067 199.304 13.6159 199.534 13.376C199.763 13.1361 199.943 12.8521 200.06 12.541C200.178 12.2299 200.232 11.8981 200.22 11.5654C200.217 9.42234 199.369 7.36764 197.862 5.85086C196.355 4.33408 194.312 3.47869 192.179 3.47185Z" fill="black"/>
<path d="M38.4446 17.7771C32.6045 9.65759 27.8426 5.02106 23.883 3.60126C23.3457 3.41274 22.7606 3.41274 22.2233 3.60126C18.2637 5.02106 13.5018 9.65759 7.66168 17.7771C3.52172 23.5339 0.459989 28.8396 0.33119 29.0578C0.00423363 29.6251 -0.085041 30.2996 0.0830051 30.933C0.251051 31.5665 0.662653 32.1069 1.22726 32.4354C1.79187 32.7639 2.46324 32.8536 3.09367 32.6847C3.7241 32.5159 4.26196 32.1023 4.58891 31.535C4.62203 31.4833 7.6764 26.196 11.6728 20.6388C17.4835 12.5711 21.1009 9.66128 23.0513 8.62971C25.0238 9.66128 28.6228 12.5711 34.4298 20.6388C38.4299 26.1849 41.4843 31.4833 41.5137 31.535C41.8457 32.0927 42.3828 32.4967 43.0088 32.6597C43.6348 32.8227 44.2996 32.7317 44.8594 32.4062C45.4191 32.0808 45.829 31.5472 46.0004 30.9206C46.1717 30.294 46.0908 29.6249 45.7751 29.0578C45.6316 28.8396 42.5846 23.5339 38.4446 17.7771Z" fill="black"/>
<path d="M254.116 17.7771C248.276 9.6428 243.514 5.02106 239.555 3.60126C239.018 3.41274 238.432 3.41274 237.895 3.60126C233.936 5.02106 229.17 9.65759 223.334 17.7771C219.194 23.5339 216.132 28.8396 216.014 29.0578C215.852 29.3387 215.747 29.6489 215.704 29.9706C215.662 30.2924 215.683 30.6194 215.766 30.933C215.849 31.2467 215.993 31.5408 216.189 31.7985C216.386 32.0563 216.631 32.2727 216.91 32.4354C217.19 32.598 217.498 32.7038 217.819 32.7465C218.139 32.7893 218.464 32.7683 218.777 32.6847C219.089 32.6011 219.381 32.4566 219.638 32.2593C219.895 32.062 220.11 31.8159 220.272 31.535C220.305 31.4833 223.359 26.196 227.356 20.6388C233.155 12.5711 236.773 9.66128 238.723 8.62971C240.67 9.66128 244.291 12.5711 250.102 20.6388C254.102 26.1849 257.156 31.4833 257.186 31.535C257.345 31.8212 257.559 32.0727 257.816 32.2749C258.073 32.477 258.367 32.6259 258.682 32.7128C258.997 32.7996 259.325 32.8228 259.649 32.7809C259.973 32.739 260.285 32.6328 260.567 32.4686C260.85 32.3044 261.097 32.0855 261.294 31.8244C261.492 31.5634 261.636 31.2656 261.717 30.9482C261.799 30.6308 261.818 30.3002 261.771 29.9757C261.725 29.6512 261.615 29.3392 261.447 29.0578C261.318 28.8396 258.253 23.5339 254.116 17.7771Z" fill="black"/>
<path d="M23.71 51.2606V55.8565H29.0901V57.9492H23.71V62.7558H29.7636V64.8522H21.1524V49.1753H29.7636V51.2717L23.71 51.2606Z" fill="black"/>
<path d="M59.5198 49.1753V64.8337H56.9438V54.1113L52.1893 64.8337H50.4192L45.6353 54.1113V64.8337H43.0593V49.1753H45.8193L51.2914 61.4543L56.7819 49.1753H59.5198Z" fill="black"/>
<path d="M83.5573 58.1304C84.0747 58.7832 84.3775 59.5815 84.4236 60.4148C84.4698 61.2481 84.2571 62.0752 83.8149 62.7817C83.374 63.4449 82.7552 63.9692 82.0302 64.2939C81.1776 64.6764 80.2514 64.8645 79.318 64.8448H73.0842V49.1753H79.0273C79.9671 49.1514 80.9006 49.3357 81.7615 49.7151C82.462 50.0257 83.0605 50.5296 83.4874 51.1682C83.8769 51.7764 84.0804 52.486 84.0725 53.2091C84.0961 54.023 83.8358 54.8195 83.3365 55.4609C82.8324 56.0793 82.1636 56.5409 81.4082 56.7919C82.2676 56.9482 83.0358 57.4266 83.5573 58.1304ZM75.6417 55.764H78.8028C79.5027 55.8051 80.1954 55.6028 80.7642 55.191C81.0023 54.9893 81.1902 54.7345 81.3129 54.4469C81.4356 54.1593 81.4896 53.8468 81.4708 53.5345C81.4865 53.2226 81.431 52.9111 81.3086 52.624C81.1861 52.3369 80.9999 52.0818 80.7642 51.8781C80.2013 51.4524 79.5062 51.2415 78.8028 51.2828H75.6417V55.764ZM81.1322 62.1162C81.3792 61.8977 81.5738 61.6259 81.7013 61.321C81.8287 61.0162 81.8858 60.6864 81.8682 60.3562C81.8823 60.0124 81.8188 59.6698 81.6824 59.3541C81.546 59.0385 81.3403 58.7579 81.0807 58.5334C80.492 58.0598 79.7511 57.8191 78.9979 57.8568H75.6344V62.7447H79.0862C79.8212 62.7886 80.5473 62.5655 81.1322 62.1162Z" fill="black"/>
<path d="M105.508 64.8448L101.935 58.5815H99.9847V64.8448H97.4087V49.1753H102.789C103.837 49.1433 104.879 49.3599 105.828 49.8075C106.601 50.174 107.249 50.7619 107.691 51.4972C108.104 52.2144 108.317 53.031 108.305 53.8599C108.313 54.8586 108.003 55.8339 107.422 56.644C106.751 57.5276 105.781 58.1329 104.695 58.3448L108.559 64.8448H105.508ZM99.9884 56.5294H102.811C103.768 56.5294 104.489 56.2891 104.975 55.8084C105.224 55.5539 105.418 55.2504 105.544 54.917C105.671 54.5836 105.728 54.2274 105.711 53.871C105.73 53.5217 105.677 53.1721 105.554 52.8448C105.431 52.5175 105.241 52.2197 104.997 51.9705C104.506 51.512 103.78 51.2828 102.818 51.2828H99.9958L99.9884 56.5294Z" fill="black"/>
<path d="M131.18 61.6466H124.655L123.551 64.8448H120.883L126.451 49.1753H129.395L134.978 64.8559H132.287L131.18 61.6466ZM130.444 59.5502L127.912 52.2737L125.354 59.5502H130.444Z" fill="black"/>
<path d="M147.832 52.8727C148.521 51.6768 149.521 50.6916 150.724 50.022C152.026 49.3168 153.488 48.9646 154.966 49.0003C156.445 49.036 157.888 49.4582 159.155 50.2253C160.447 51.0453 161.435 52.2691 161.966 53.7083H158.897C158.54 52.9324 157.953 52.2866 157.216 51.8596C156.452 51.4415 155.593 51.2312 154.724 51.2495C153.76 51.2343 152.809 51.4753 151.968 51.9483C151.155 52.4183 150.497 53.116 150.073 53.956C149.622 54.9059 149.388 55.9449 149.388 56.9971C149.388 58.0494 149.622 59.0883 150.073 60.0382C150.5 60.878 151.158 61.5773 151.968 62.0533C152.806 62.535 153.759 62.7803 154.724 62.7632C155.593 62.781 156.451 62.572 157.216 62.1568C157.952 61.7286 158.539 61.0832 158.897 60.3081H161.966C161.437 61.745 160.448 62.9647 159.155 63.7763C157.828 64.5958 156.296 65.0179 154.739 64.9927C153.336 65.009 151.953 64.6559 150.728 63.9685C149.529 63.2965 148.534 62.3116 147.846 61.1179C147.146 59.8576 146.779 58.4385 146.779 56.9953C146.779 55.5521 147.146 54.1329 147.846 52.8727H147.832Z" fill="black"/>
<path d="M177.709 51.2606V55.8565H183.089V57.9492H177.709V62.7558H183.763V64.8522H175.166V49.1753H183.778V51.2717L177.709 51.2606Z" fill="black"/>
<path d="M225.95 64.8448H223.374L215.683 53.15V64.8448H213.107V49.1753H215.683L223.374 60.8332V49.1753H225.95V64.8448Z" fill="black"/>
<path d="M248.902 61.6466H242.377L241.273 64.8448H238.605L244.17 49.1753H247.114L252.7 64.8559H250.006L248.902 61.6466ZM248.166 59.5502L245.63 52.2737L243.077 59.5502H248.166Z" fill="black"/>
<path d="M275.405 49.1753V51.2717H271.258V64.8337H268.682V51.2828H264.531V49.1753H275.405Z" fill="black"/>
<path d="M290.717 49.1753V59.1582C290.717 60.3439 291.028 61.2374 291.648 61.8389C291.998 62.1519 292.405 62.3927 292.847 62.5475C293.289 62.7023 293.757 62.7681 294.224 62.741C295.346 62.741 296.217 62.4403 296.837 61.8389C297.458 61.2374 297.773 60.3439 297.783 59.1582V49.1753H300.341V59.1213C300.375 60.2607 300.087 61.3866 299.509 62.3676C298.982 63.231 298.214 63.9201 297.301 64.3494C296.335 64.7784 295.29 65 294.234 65C293.177 65 292.133 64.7784 291.166 64.3494C290.259 63.9203 289.498 63.2307 288.98 62.3676C288.418 61.3813 288.139 60.2575 288.175 59.1213V49.1753H290.717Z" fill="black"/>
<path d="M321.953 64.8448L318.369 58.5815H316.415V64.8448H313.861V49.1753H319.241C320.289 49.1437 321.331 49.3603 322.281 49.8075C323.053 50.175 323.7 50.7626 324.143 51.4972C324.555 52.2151 324.767 53.0312 324.757 53.8599C324.765 54.8593 324.454 55.835 323.87 56.644C323.202 57.5281 322.232 58.1337 321.147 58.3448L325.004 64.8337L321.953 64.8448ZM316.433 56.5294H319.259C320.216 56.5294 320.937 56.2891 321.423 55.8084C321.672 55.5539 321.866 55.2504 321.993 54.917C322.119 54.5836 322.176 54.2274 322.159 53.871C322.176 53.52 322.12 53.1693 321.993 52.8418C321.866 52.5143 321.672 52.2174 321.423 51.9705C320.945 51.512 320.22 51.2828 319.248 51.2828H316.422L316.433 56.5294Z" fill="black"/>
<path d="M340.791 51.2606V55.8565H346.171V57.9492H340.791V62.7558H346.844V64.8522H338.233V49.1753H346.844V51.2717L340.791 51.2606Z" fill="black"/>
</svg>
