<svg width="304" height="87" viewBox="0 0 304 87" fill="none" xmlns="http://www.w3.org/2000/svg">
<path d="M46.0395 83.9394L43.5346 73.5436C41.5091 72.6281 39.5827 71.5045 37.7861 70.1907L27.581 73.1976L16.7071 54.2311L24.4498 46.781C24.3465 45.7277 24.2918 44.6621 24.2918 43.5811C24.2918 42.442 24.3526 41.3244 24.462 40.2128L16.7071 32.7597L27.581 13.7748L37.9563 16.8369C39.6868 15.5888 41.536 14.5169 43.4768 13.637L46.0395 3.0575H59.09C52.54 0.443984 45.4548 -0.515719 38.4521 0.26209C31.4494 1.0399 24.7419 3.5316 18.9147 7.51989C13.0875 11.5082 8.3174 16.8719 5.02051 23.1434C1.72361 29.4148 0 36.4035 0 43.5C0 50.5964 1.72361 57.5851 5.02051 63.8566C8.3174 70.1281 13.0875 75.4918 18.9147 79.4801C24.7419 83.4684 31.4494 85.9601 38.4521 86.7379C45.4548 87.5157 52.54 86.556 59.09 83.9425L46.0395 83.9394Z" fill="black"/>
<path d="M56.6489 59.5162C51.706 59.5162 47.8686 58.1893 45.1367 55.5355C42.4048 52.8817 41.0408 49.1143 41.0449 44.2334C41.0449 39.185 42.3105 35.3064 44.8418 32.5974C47.373 29.8885 50.9896 28.5381 55.6913 28.5463C60.1499 28.5463 63.6033 29.7201 66.0515 32.0677C68.4996 34.4153 69.7156 37.7989 69.6994 42.2185V46.8116H51.3807C51.4516 48.4835 52.0596 49.7941 53.2047 50.7434C54.3497 51.6926 55.9082 52.1683 57.8801 52.1703C59.5498 52.1848 61.2159 52.0112 62.8474 51.6528C64.5417 51.2482 66.1885 50.6631 67.7599 49.9074V57.3238C66.1916 58.1359 64.5141 58.7135 62.7805 59.0386C60.755 59.3825 58.7029 59.5424 56.6489 59.5162ZM56.0409 35.5769C54.922 35.5498 53.8374 35.9678 53.0223 36.7404C52.2116 37.5039 51.7354 38.7043 51.5935 40.3415H60.4093C60.3729 38.8961 59.9675 37.7438 59.1934 36.8844C58.796 36.4476 58.3082 36.1042 57.7645 35.8782C57.2208 35.6523 56.6345 35.5494 56.047 35.5769H56.0409Z" fill="black"/>
<path d="M84.4766 14.9721H83.5646V86.6371H84.4766V14.9721Z" fill="black"/>
<path d="M106.1 71.293H100.746V75.9841H107.012V77.3713H98.9862V64.2594H106.908V65.6557H100.746V69.8967H106.1V71.293Z" fill="black"/>
<path d="M119.691 74.0673C119.697 73.7866 119.643 73.508 119.533 73.2499C119.424 72.9918 119.261 72.76 119.056 72.5699C118.63 72.1688 117.889 71.8258 116.819 71.5441C115.688 71.305 114.628 70.8062 113.721 70.0866C113.366 69.7933 113.081 69.4227 112.888 69.0026C112.695 68.5826 112.6 68.124 112.608 67.6614C112.601 67.1701 112.705 66.6836 112.913 66.2389C113.12 65.7943 113.426 65.4032 113.806 65.0954C114.686 64.3841 115.792 64.0194 116.919 64.0696C118.291 64.0696 119.383 64.4615 120.196 65.2454C120.578 65.5889 120.882 66.0117 121.087 66.4848C121.292 66.9579 121.392 67.47 121.381 67.986L121.354 68.0411H119.673C119.681 67.6969 119.616 67.355 119.482 67.0382C119.349 66.7213 119.149 66.4369 118.898 66.2038C118.359 65.7077 117.648 65.4458 116.919 65.4751C116.234 65.4313 115.559 65.6501 115.028 66.0875C114.812 66.285 114.641 66.5276 114.528 66.7984C114.414 67.0691 114.361 67.3616 114.371 67.6553C114.37 67.9333 114.435 68.2076 114.56 68.4557C114.684 68.7037 114.866 68.9185 115.089 69.0822C115.797 69.5644 116.591 69.9054 117.427 70.0866C118.74 70.4295 119.739 70.9337 120.424 71.5992C120.757 71.9154 121.02 72.2984 121.197 72.7235C121.374 73.1486 121.461 73.6064 121.451 74.0673C121.464 74.5609 121.359 75.0505 121.143 75.4941C120.928 75.9377 120.609 76.3222 120.214 76.6149C119.387 77.258 118.31 77.5795 116.983 77.5795C115.783 77.6021 114.609 77.229 113.639 76.5169C113.182 76.2034 112.814 75.7766 112.569 75.2778C112.324 74.7789 112.211 74.2249 112.24 73.6692L112.259 73.6171H113.94C113.922 73.9876 113.998 74.3564 114.161 74.6893C114.323 75.0223 114.566 75.3086 114.867 75.5218C115.479 75.966 116.216 76.201 116.971 76.1924C117.674 76.2303 118.371 76.031 118.95 75.6259C119.191 75.4473 119.384 75.2117 119.514 74.9399C119.643 74.6681 119.704 74.3684 119.691 74.0673Z" fill="black"/>
<path d="M136.897 73.1793L136.916 73.2344C136.94 73.8129 136.837 74.3897 136.615 74.9237C136.393 75.4577 136.056 75.9358 135.63 76.324C134.746 77.1406 133.581 77.555 132.134 77.5672C131.455 77.5888 130.781 77.4585 130.158 77.1858C129.536 76.9131 128.981 76.5048 128.534 75.9902C127.586 74.8822 127.088 73.4535 127.142 71.9912V69.6579C127.09 68.1949 127.587 66.7658 128.534 65.6557C128.981 65.1403 129.535 64.7312 130.158 64.4579C130.78 64.1847 131.455 64.0541 132.134 64.0757C133.605 64.0757 134.775 64.4707 135.645 65.2607C136.077 65.6542 136.416 66.1406 136.636 66.684C136.856 67.2274 136.951 67.8137 136.916 68.3993L136.897 68.4514H135.207C135.228 68.0525 135.168 67.6536 135.03 67.2791C134.892 66.9047 134.679 66.5627 134.405 66.2743C133.866 65.7394 133.109 65.472 132.134 65.472C131.674 65.4592 131.218 65.5619 130.807 65.7709C130.396 65.9799 130.044 66.2887 129.781 66.6693C129.176 67.538 128.868 68.5819 128.905 69.6425V71.9912C128.866 73.0578 129.173 74.1083 129.781 74.9828C130.044 75.3634 130.396 75.6721 130.807 75.8812C131.218 76.0902 131.674 76.1929 132.134 76.1801C133.111 76.1801 133.868 75.9147 134.405 75.384C134.681 75.091 134.894 74.7443 135.032 74.3652C135.17 73.986 135.23 73.5825 135.207 73.1793H136.897Z" fill="black"/>
<path d="M152.471 64.2594V72.968C152.471 74.3969 152.006 75.5197 151.076 76.3363C150.145 77.1528 148.947 77.5611 147.479 77.5611C146.211 77.6118 144.97 77.1738 144.011 76.3363C143.111 75.5197 142.661 74.3969 142.661 72.968V64.2594H144.424V72.968C144.399 73.3984 144.462 73.8295 144.609 74.2345C144.756 74.6395 144.984 75.0099 145.278 75.3227C145.569 75.6072 145.914 75.8294 146.292 75.9757C146.671 76.122 147.074 76.1895 147.479 76.174C148.337 76.2095 149.175 75.9038 149.811 75.3227C150.118 75.0169 150.357 74.6487 150.511 74.2427C150.666 73.8366 150.733 73.4021 150.708 72.968V64.2594H152.471Z" fill="black"/>
<path d="M166.029 71.293H160.682V75.9841H166.941V77.3713H158.922V64.2594H166.844V65.6557H160.682V69.8967H166.029V71.293Z" fill="black"/>
<path d="M174.45 75.9841H180.797V77.3713H172.674V64.2594H174.438L174.45 75.9841Z" fill="black"/>
<path d="M193.31 73.9938H188.412L187.248 77.3621H185.442L190.136 64.2502H191.656L196.252 77.3621H194.456L193.31 73.9938ZM188.92 72.5087H192.811L190.914 66.8805H190.862L188.92 72.5087Z" fill="black"/>
<path d="M219.143 65.6557H214.851V77.3713H213.106V65.6557H208.85V64.2594H219.14L219.143 65.6557Z" fill="black"/>
<path d="M231.765 71.293H226.418V75.9841H232.677V77.3713H224.657V64.2594H232.58V65.6557H226.418V69.8967H231.765V71.293ZM229.521 60.5757H231.576L231.595 60.6308L229.19 62.9733H227.868L229.521 60.5757Z" fill="black"/>
<path d="M247.712 73.1793L247.731 73.2344C247.755 73.8132 247.652 74.3903 247.429 74.9245C247.207 75.4586 246.869 75.9365 246.442 76.324C245.56 77.1406 244.395 77.555 242.946 77.5672C242.267 77.5883 241.593 77.4579 240.971 77.1852C240.348 76.9125 239.794 76.5044 239.346 75.9902C238.401 74.8805 237.905 73.4527 237.957 71.9912V69.6579C237.904 68.1953 238.4 66.7663 239.346 65.6557C239.793 65.1406 240.348 64.7317 240.97 64.4585C241.592 64.1853 242.267 64.0545 242.946 64.0757C244.419 64.0757 245.59 64.4707 246.46 65.2607C246.892 65.6542 247.231 66.1406 247.451 66.684C247.671 67.2274 247.766 67.8137 247.731 68.3993L247.712 68.4514H246.022C246.043 68.0525 245.983 67.6536 245.845 67.2791C245.707 66.9047 245.494 66.5627 245.22 66.2743C244.683 65.7394 243.925 65.472 242.946 65.472C242.486 65.4594 242.031 65.5623 241.621 65.7713C241.21 65.9803 240.858 66.2889 240.596 66.6693C239.991 67.538 239.683 68.5819 239.72 69.6425V71.9912C239.681 73.0578 239.988 74.1083 240.596 74.9828C240.858 75.3632 241.21 75.6718 241.621 75.8808C242.031 76.0898 242.486 76.1927 242.946 76.1801C243.925 76.1801 244.683 75.9147 245.22 75.384C245.496 75.091 245.709 74.7443 245.847 74.3652C245.985 73.986 246.045 73.5825 246.022 73.1793H247.712Z" fill="black"/>
<path d="M263.526 77.3713H261.763L255.498 67.3613L255.443 67.3797V77.3774H253.683V64.2594H255.443L261.711 74.2632L261.763 74.2449V64.2594H263.526V77.3713Z" fill="black"/>
<path d="M272.187 77.3713H270.415V64.2594H272.187V77.3713Z" fill="black"/>
<path d="M288.366 73.1793L288.384 73.2344C288.408 73.8132 288.305 74.3903 288.083 74.9245C287.86 75.4586 287.522 75.9365 287.095 76.324C286.213 77.1406 285.048 77.555 283.599 77.5672C282.921 77.5883 282.246 77.4579 281.624 77.1852C281.001 76.9125 280.447 76.5044 280 75.9902C279.054 74.8805 278.558 73.4527 278.61 71.9912V69.6579C278.557 68.1953 279.053 66.7663 280 65.6557C280.446 65.1406 281.001 64.7317 281.623 64.4585C282.246 64.1853 282.92 64.0545 283.599 64.0757C285.072 64.0757 286.244 64.4707 287.113 65.2607C287.545 65.6546 287.883 66.1411 288.103 66.6844C288.323 67.2276 288.419 67.8137 288.384 68.3993L288.366 68.4514H286.672C286.693 68.0525 286.633 67.6536 286.495 67.2791C286.357 66.9047 286.144 66.5627 285.87 66.2743C285.333 65.7394 284.575 65.472 283.596 65.472C283.136 65.4594 282.681 65.5623 282.271 65.7713C281.86 65.9803 281.508 66.2889 281.246 66.6693C280.641 67.538 280.333 68.5819 280.371 69.6425V71.9912C280.331 73.0578 280.638 74.1083 281.246 74.9828C281.508 75.3632 281.86 75.6718 282.271 75.8808C282.681 76.0898 283.136 76.1927 283.596 76.1801C284.575 76.1801 285.333 75.9147 285.87 75.384C286.146 75.091 286.359 74.7443 286.497 74.3652C286.635 73.986 286.695 73.5825 286.672 73.1793H288.366Z" fill="black"/>
<path d="M301.057 73.9938H296.16L294.996 77.3621H293.199L297.893 64.2502H299.413L304 77.3713H302.203L301.057 73.9938ZM296.668 72.5087H300.559L298.662 66.8805H298.61L296.668 72.5087Z" fill="black"/>
<path d="M111.876 55.5508C107.636 55.5508 104.343 54.4148 101.996 52.1427C99.6489 49.8707 98.4765 46.6361 98.4785 42.439C98.4785 38.1051 99.5648 34.7797 101.737 32.4627C103.91 30.1457 107.013 28.9872 111.046 28.9872C114.882 28.9872 117.846 29.9957 119.938 32.0126C122.029 34.0295 123.075 36.9323 123.075 40.7212V44.6621H107.358C107.358 45.3045 107.498 45.9392 107.768 46.5213C108.038 47.1033 108.431 47.6185 108.921 48.0303C109.904 48.8469 111.241 49.2552 112.933 49.2552C114.364 49.2665 115.791 49.1186 117.189 48.8142C118.643 48.4642 120.055 47.9591 121.403 47.3077V53.6738C120.057 54.3699 118.619 54.865 117.132 55.1436C115.395 55.4371 113.636 55.5734 111.876 55.5508ZM111.359 35.0134C110.399 34.984 109.466 35.3372 108.763 35.9964C108.068 36.6557 107.662 37.6866 107.547 39.0891H115.101C115.071 37.8479 114.722 36.8588 114.055 36.1219C113.713 35.75 113.295 35.458 112.829 35.2665C112.363 35.075 111.861 34.9886 111.359 35.0134Z" fill="black"/>
<path d="M147.713 47.2189C147.713 49.9666 146.784 52.0427 144.926 53.4472C143.067 54.8517 140.399 55.5529 136.922 55.5508C135.275 55.5653 133.629 55.463 131.997 55.2446C130.538 55.0228 129.106 54.6461 127.726 54.1208V47.0382C129.174 47.6699 130.676 48.17 132.213 48.5325C133.635 48.8977 135.095 49.095 136.563 49.1205C138.466 49.1205 139.417 48.6826 139.417 47.8068C139.417 47.3536 139.15 46.9494 138.621 46.5973C138.092 46.2452 136.542 45.5501 133.976 44.5243C131.637 43.5566 130.004 42.4584 129.076 41.2295C128.147 40.0005 127.683 38.4409 127.683 36.5506C127.683 34.1683 128.595 32.3116 130.419 30.9807C132.243 29.6497 134.828 28.9852 138.174 28.9872C139.768 28.9781 141.358 29.1643 142.907 29.5415C144.484 29.9465 146.023 30.4885 147.507 31.1613L145.123 36.869C143.92 36.3299 142.68 35.8796 141.412 35.5217C140.377 35.1962 139.303 35.0098 138.22 34.9675C136.781 34.9675 136.061 35.3217 136.061 36.03C136.061 36.4679 136.311 36.8415 136.815 37.1508C137.32 37.46 138.767 38.0908 141.165 39.0431C142.951 39.7842 144.281 40.5088 145.157 41.2172C145.995 41.8789 146.659 42.738 147.09 43.7189C147.532 44.8309 147.744 46.0217 147.713 47.2189Z" fill="black"/>
<path d="M165.075 48.554C166.532 48.5012 167.971 48.2031 169.331 47.6721V54.1239C168.244 54.6079 167.11 54.9764 165.947 55.2232C164.705 55.4582 163.444 55.5679 162.181 55.5508C159.228 55.5508 157.1 54.8231 155.797 53.3676C154.494 51.9121 153.837 49.6737 153.827 46.6524V36.076H150.75V32.475L154.66 29.6976L156.931 24.3053H162.688V29.4404H168.938V36.076H162.688V46.0645C162.688 47.7241 163.484 48.554 165.075 48.554Z" fill="black"/>
<path d="M189.148 28.9872C189.879 28.9849 190.609 29.0453 191.331 29.1679L191.823 29.2598L191.036 37.6162C190.053 37.4088 189.051 37.3173 188.047 37.3437C186.128 37.3437 184.734 37.7856 183.864 38.6696C182.995 39.5535 182.56 40.8253 182.56 42.4849V55.113H173.772V29.4404H180.314L181.685 33.5406H182.098C182.821 32.1931 183.879 31.0578 185.169 30.2458C186.346 29.4474 187.729 29.0102 189.148 28.9872Z" fill="black"/>
<path d="M213.519 55.113L212.419 51.9192H211.89C211.149 53.1017 210.082 54.0413 208.819 54.623C207.368 55.2798 205.789 55.601 204.199 55.5631C201.396 55.5631 199.215 54.7465 197.657 53.1134C196.098 51.4803 195.319 49.1664 195.319 46.1717V29.4404H204.11V43.4587C204.11 45.1326 204.347 46.4013 204.819 47.2648C205.291 48.1283 206.066 48.5581 207.144 48.554C208.658 48.554 209.737 47.9538 210.382 46.7535C211.026 45.5531 211.349 43.527 211.349 40.6752V29.4404H220.14V55.113H213.519Z" fill="black"/>
<path d="M237.823 55.5508C233.657 55.5508 230.498 54.4189 228.348 52.155C226.198 49.8911 225.122 46.6381 225.12 42.3961C225.12 38.1378 226.282 34.8389 228.606 32.4995C230.931 30.16 234.235 28.9893 238.52 28.9872C241.408 28.9711 244.26 29.6338 246.849 30.9225L244.262 37.4692C243.303 37.0401 242.32 36.6659 241.319 36.3485C240.409 36.0662 239.46 35.9248 238.507 35.929C237.861 35.9015 237.218 36.041 236.639 36.3341C236.061 36.6272 235.567 37.0643 235.203 37.604C234.425 38.7226 234.035 40.3006 234.033 42.3379C234.033 46.4452 235.539 48.4978 238.553 48.4958C241.196 48.4805 243.777 47.6945 245.986 46.2329V53.2757C243.724 54.7945 241.003 55.5529 237.823 55.5508Z" fill="black"/>
<path d="M267.657 55.113L265.97 51.714H265.791C264.607 53.192 263.401 54.2035 262.17 54.7486C260.94 55.2936 259.352 55.5651 257.407 55.5631C255.007 55.5631 253.118 54.8384 251.74 53.389C250.362 51.9396 249.672 49.8982 249.67 47.2648C249.67 44.5294 250.615 42.4941 252.503 41.159C254.392 39.824 257.128 39.0738 260.711 38.9084L264.967 38.7706V38.4093C264.967 36.2964 263.933 35.239 261.863 35.237C260.003 35.237 257.642 35.8718 254.78 37.1416L252.239 31.2991C255.208 29.7579 258.957 28.9872 263.487 28.9872C266.756 28.9872 269.289 29.8038 271.087 31.4369C272.884 33.07 273.772 35.3482 273.75 38.2715V55.113H267.657ZM261.137 49.295C262.145 49.319 263.123 48.9542 263.873 48.2753C264.245 47.9459 264.539 47.5375 264.735 47.0794C264.932 46.6214 265.024 46.1251 265.007 45.6266V43.6332L262.985 43.7251C260.091 43.8333 258.644 44.905 258.644 46.9403C258.642 48.5101 259.473 49.295 261.137 49.295Z" fill="black"/>
<path d="M287.645 55.5508C285.93 55.5835 284.254 55.0334 282.888 53.9892C281.532 52.9481 280.483 51.417 279.741 49.396C278.958 47.1177 278.582 44.7178 278.629 42.3073C278.629 38.1408 279.461 34.8797 281.124 32.524C282.788 30.1682 285.074 28.9903 287.983 28.9903C289.281 28.9619 290.567 29.2575 291.725 29.8507C292.795 30.4264 293.773 31.393 294.658 32.7505H294.838C294.555 30.7554 294.413 28.7427 294.412 26.7274V19.8622H303.27V55.113H296.637L294.749 51.8733H294.412C292.9 54.327 290.645 55.5529 287.645 55.5508ZM291.232 48.554C292.639 48.554 293.632 48.1089 294.211 47.2189C294.791 46.3289 295.102 44.955 295.145 43.0973V42.3961C295.145 40.1302 294.822 38.5185 294.178 37.5611C293.533 36.6037 292.52 36.1239 291.138 36.1219C289.987 36.1219 289.092 36.669 288.454 37.7632C287.815 38.8574 287.496 40.416 287.496 42.439C287.496 44.4314 287.818 45.9492 288.463 46.9923C288.74 47.4813 289.145 47.8851 289.632 48.1602C290.12 48.4353 290.673 48.5714 291.232 48.554Z" fill="black"/>
</svg>
