<svg width="328" height="54" viewBox="0 0 328 54" fill="none" xmlns="http://www.w3.org/2000/svg">
<path d="M20.8459 53.3562L20.8066 0.542498C20.8043 0.514978 20.8078 0.487289 20.8169 0.461184C20.8259 0.43508 20.8402 0.41113 20.859 0.390852C20.8778 0.370574 20.9006 0.354411 20.926 0.343387C20.9514 0.332363 20.9788 0.326719 21.0065 0.326812C21.0595 0.326812 21.1103 0.347814 21.1478 0.385199C21.1853 0.422583 21.2064 0.473288 21.2064 0.526158L21.2457 52.951H33.8639L33.8377 20.0261C33.8386 19.973 33.8604 19.9223 33.8984 19.885C33.9364 19.8477 33.9876 19.8268 34.0409 19.8268C34.0936 19.8276 34.144 19.8489 34.1813 19.8861C34.2186 19.9233 34.2399 19.9735 34.2407 20.0261L34.2637 53.3595L20.8459 53.3562Z" fill="black"/>
<path d="M20.5183 53.6863L20.479 0.542498C20.479 0.402956 20.5345 0.269129 20.6335 0.170458C20.7324 0.071787 20.8666 0.0163542 21.0065 0.0163542C21.1464 0.0163542 21.2806 0.071787 21.3795 0.170458C21.4784 0.269129 21.534 0.402956 21.534 0.542498L21.5733 52.6405H33.5363L33.5101 20.0425C33.5205 19.9097 33.5808 19.7857 33.6789 19.6953C33.777 19.6049 33.9057 19.5546 34.0392 19.5546C34.1728 19.5546 34.3015 19.6049 34.3995 19.6953C34.4976 19.7857 34.5579 19.9097 34.5684 20.0425L34.5913 53.7026L20.5183 53.6863Z" fill="black"/>
<path d="M56.1089 53.4444C56.076 53.4441 56.0437 53.4359 56.0146 53.4205C55.9856 53.4052 55.9606 53.3831 55.9418 53.3562L20.9934 0.653609C20.9665 0.624139 20.9493 0.587207 20.944 0.547728C20.9387 0.50825 20.9456 0.468097 20.9637 0.432614C20.9818 0.397131 21.0104 0.368 21.0455 0.3491C21.0807 0.330199 21.1208 0.322425 21.1605 0.326812H37.6812L37.8483 0.415047L72.836 53.1242C72.8552 53.1545 72.8654 53.1896 72.8654 53.2255C72.8654 53.2613 72.8552 53.2965 72.836 53.3268C72.8196 53.3586 72.7947 53.3852 72.7641 53.4036C72.7334 53.4221 72.6982 53.4317 72.6624 53.4314H56.0991L56.1089 53.4444ZM21.534 0.73204L56.217 53.0457H72.2987L37.5665 0.758184L21.534 0.73204Z" fill="black"/>
<path d="M56.1122 53.7712C56.0252 53.7711 55.9396 53.7496 55.863 53.7086C55.7864 53.6675 55.7212 53.6082 55.6731 53.5359L20.7214 0.823543C20.6669 0.744244 20.6353 0.651573 20.6299 0.555595C20.6245 0.459616 20.6456 0.363997 20.6908 0.279121C20.7361 0.194245 20.8038 0.123356 20.8866 0.0741505C20.9694 0.0249455 21.0641 -0.000694621 21.1605 1.43124e-05H37.7697L38.0973 0.166681L38.1399 0.235308L73.1113 52.9412C73.164 53.0204 73.1942 53.1124 73.1986 53.2074C73.2031 53.3024 73.1816 53.3968 73.1366 53.4806C73.0916 53.5644 73.0246 53.6344 72.9428 53.6833C72.8611 53.7322 72.7675 53.7581 72.6722 53.7582L56.1122 53.7712ZM22.1435 1.05884L56.394 52.7189H71.6892L37.406 1.05884H22.1435Z" fill="black"/>
<path d="M13.6144 53.6732C13.5802 53.6767 13.5456 53.6714 13.514 53.6576C13.4824 53.6439 13.4549 53.6222 13.4342 53.5948L0.383456 33.7712L0.35069 33.6601L0.327753 0.535962C0.326421 0.50897 0.330605 0.48199 0.340051 0.456661C0.349497 0.431332 0.364008 0.408183 0.382703 0.388621C0.401397 0.369059 0.423885 0.353492 0.448798 0.342867C0.473712 0.332241 0.500531 0.326779 0.527627 0.326812H13.5718C13.5981 0.326746 13.6241 0.331916 13.6483 0.342019C13.6725 0.352121 13.6944 0.366951 13.7127 0.385635C13.75 0.423041 13.7711 0.473448 13.7717 0.526158L13.811 53.4673C13.8108 53.5106 13.7967 53.5527 13.7707 53.5874C13.7448 53.6221 13.7084 53.6476 13.6669 53.6601L13.6144 53.6732ZM0.753714 33.6013L13.4146 52.8072L13.372 0.725504H0.727501L0.753714 33.6013Z" fill="black"/>
<path d="M13.6144 54C13.5266 54.0004 13.44 53.9787 13.3627 53.9371C13.2854 53.8954 13.2199 53.835 13.1721 53.7614L0.0852837 33.9118L0.0230279 33.6601L9.15972e-05 0.535962C-0.00121484 0.466047 0.0114653 0.396574 0.037391 0.331603C0.0633166 0.266633 0.101967 0.207468 0.151084 0.157568C0.200201 0.107668 0.258799 0.0680335 0.323451 0.0409814C0.388104 0.0139292 0.457515 2.17173e-06 0.527627 1.43124e-05H13.5718C13.7098 0.0034097 13.841 0.0602361 13.9376 0.158451C14.0342 0.256666 14.0887 0.388551 14.0895 0.526158L14.1289 53.4673C14.1307 53.5803 14.096 53.6909 14.0299 53.7828C13.9638 53.8746 13.8698 53.9427 13.7619 53.9771C13.7142 53.9923 13.6645 54.0001 13.6144 54ZM1.08138 33.5033L13.0836 51.7124L13.0476 1.05884H1.05516L1.08138 33.5033Z" fill="black"/>
<path d="M170.948 24.9608L189.962 53.1471L205.854 53.134L170.935 0.702628L136.13 53.1863L152.36 53.1732L170.948 24.9608Z" fill="black"/>
<path d="M97.6761 53.2157L81.6665 53.2288L46.6952 0.526158L62.7047 0.516354L84.6155 33.5392L84.5925 0.483674H84.6089L97.6564 20.1405L97.6761 53.2157Z" fill="white"/>
<path d="M97.6761 53.2157L81.6665 53.2288L46.6952 0.526158L62.7047 0.516354L84.6155 33.5392L84.5925 0.483674H84.6089L97.6564 20.1405L97.6761 53.2157Z" fill="black"/>
<path d="M130.655 0.50655V0.47387H130C129.908 0.47387 129.816 0.45753 129.725 0.45753C129.541 0.45753 129.358 0.45753 129.177 0.47387L97.6433 0.496746V0.47387H88.898L97.6761 13.7255H130.354C131.676 13.8064 132.943 14.2829 133.989 15.0926C135.036 15.9023 135.813 17.0078 136.22 18.2648C136.627 19.5219 136.645 20.8721 136.272 22.1394C135.898 23.4067 135.15 24.5323 134.125 25.3693C134.007 25.4641 133.883 25.5556 133.758 25.6471L133.352 25.9085C133.244 25.9739 133.136 26.036 133.024 26.0948C132.076 26.6015 131.017 26.8675 129.941 26.8693H107.414L107.434 53.2059H120.478V40H128.077C128.519 40.0261 132.644 39.9641 135.285 39.2451C137.926 38.5261 138.273 38.2353 139.584 37.4967L140.026 37.2353L141.249 36.4444C141.625 36.1765 141.999 35.8987 142.359 35.6078C145.464 33.0652 147.724 29.6432 148.838 25.7935C149.953 21.9438 149.871 17.8475 148.603 14.0452C147.336 10.2429 144.941 6.91345 141.737 4.49633C138.533 2.07922 134.669 0.688079 130.655 0.50655Z" fill="black"/>
<path d="M269.046 13.8497C269.015 13.8488 268.985 13.8357 268.963 13.8131C268.941 13.7905 268.928 13.7603 268.928 13.7288V13.317C268.928 13.2858 268.941 13.2559 268.963 13.2338C268.985 13.2117 269.015 13.1994 269.046 13.1994C269.078 13.1994 269.108 13.2117 269.13 13.2338C269.152 13.2559 269.164 13.2858 269.164 13.317V13.7255C269.165 13.7414 269.162 13.7572 269.156 13.772C269.151 13.7869 269.142 13.8004 269.131 13.812C269.12 13.8235 269.107 13.8328 269.093 13.8392C269.078 13.8457 269.062 13.8493 269.046 13.8497Z" fill="#575756"/>
<path d="M255.701 13.8628C255.669 13.8619 255.639 13.8488 255.617 13.8262C255.595 13.8036 255.583 13.7733 255.583 13.7418V13.3791C255.583 13.3479 255.595 13.318 255.617 13.2959C255.64 13.2738 255.67 13.2614 255.701 13.2614C255.732 13.2614 255.762 13.2738 255.784 13.2959C255.806 13.318 255.819 13.3479 255.819 13.3791V13.7418C255.819 13.7733 255.806 13.8036 255.784 13.8262C255.762 13.8488 255.732 13.8619 255.701 13.8628Z" fill="#575756"/>
<path d="M301.587 0.444459C298.854 0.418315 295.135 0.418315 295.135 0.418315L304.07 13.915C306.503 14.3818 308.752 15.5299 310.554 17.2252C312.357 18.9204 313.637 21.0926 314.247 23.4875C314.856 25.8823 314.769 28.4008 313.996 30.7481C313.223 33.0954 311.795 35.1744 309.88 36.7418C309.644 36.9346 309.398 37.1144 309.149 37.2908L308.349 37.8105C308.137 37.9379 307.92 38.0654 307.694 38.183C306.511 38.8097 305.238 39.2506 303.919 39.4902L295.433 52.3333C295.826 52.4281 296.213 52.5359 296.613 52.6111C298.114 52.8354 299.63 52.9457 301.147 52.9412C305.894 52.9606 310.569 51.7921 314.745 49.5425L315.26 49.2353L316.898 48.1863C317.4 47.8301 317.881 47.4673 318.369 47.0784C321.583 44.4453 324.126 41.0917 325.792 37.2913C327.458 33.4909 328.199 29.3515 327.955 25.2109C327.71 21.0704 326.488 17.0461 324.387 13.4666C322.286 9.88708 319.366 6.85381 315.866 4.61439C311.747 1.9608 307.75 0.444459 301.587 0.444459Z" fill="#55BECD"/>
<path d="M299.761 39.5621L292.039 51.2712C288.503 49.9046 285.305 47.7923 282.663 45.0789C280.021 42.3654 277.999 39.1149 276.733 35.5496C275.468 31.9843 274.99 28.1885 275.331 24.4218C275.673 20.6551 276.826 17.0064 278.712 13.7255H269.046V53.1242H255.707V13.7418H243.518L234.701 0.464066L291.029 0.418315L299.876 13.8007C296.751 14.2098 293.88 15.7346 291.796 18.0926C289.711 20.4506 288.554 23.4821 288.539 26.6257C288.523 29.7694 289.65 32.8121 291.711 35.1906C293.772 37.5691 296.627 39.1221 299.748 39.5621H299.761Z" fill="url(#paint0_linear_15_81)"/>
<path d="M269.046 13.8497C269.015 13.8488 268.985 13.8357 268.963 13.8131C268.941 13.7905 268.928 13.7603 268.928 13.7288V13.317C268.928 13.2858 268.941 13.2559 268.963 13.2338C268.985 13.2117 269.015 13.1994 269.046 13.1994C269.078 13.1994 269.108 13.2117 269.13 13.2338C269.152 13.2559 269.164 13.2858 269.164 13.317V13.7255C269.165 13.7414 269.162 13.7572 269.156 13.772C269.151 13.7869 269.142 13.8004 269.131 13.812C269.12 13.8235 269.107 13.8328 269.093 13.8392C269.078 13.8457 269.062 13.8493 269.046 13.8497Z" fill="black"/>
<path d="M255.701 13.8628C255.669 13.8619 255.639 13.8488 255.617 13.8262C255.595 13.8036 255.583 13.7733 255.583 13.7418V13.3791C255.583 13.3479 255.595 13.318 255.617 13.2959C255.64 13.2738 255.67 13.2614 255.701 13.2614C255.732 13.2614 255.762 13.2738 255.784 13.2959C255.806 13.318 255.819 13.3479 255.819 13.3791V13.7418C255.819 13.7733 255.806 13.8036 255.784 13.8262C255.762 13.8488 255.732 13.8619 255.701 13.8628Z" fill="black"/>
<path d="M232.293 36.8333C232.057 37.0261 231.814 37.2059 231.565 37.3824L230.762 37.9085C230.549 38.0359 230.337 38.1634 230.107 38.281C228.357 39.2068 226.418 39.7228 224.438 39.7899C222.458 39.857 220.488 39.4735 218.679 38.6684C216.87 37.8633 215.268 36.6578 213.995 35.1434C212.722 33.6289 211.812 31.8453 211.334 29.9278C210.855 28.0103 210.821 26.0092 211.233 24.0764C211.645 22.1436 212.493 20.3299 213.713 18.7727C214.933 17.2156 216.492 15.9559 218.273 15.0894C220.053 14.2228 222.008 13.772 223.99 13.7713C224.114 13.7713 224.232 13.7876 224.357 13.7909V13.7713H239.383L230.595 0.464066H224.37C224.245 0.464066 224.124 0.464066 224.003 0.464066C217.438 0.463171 211.109 2.90363 206.252 7.30859C201.395 11.7135 198.359 17.7665 197.738 24.2846C197.116 30.8028 198.954 37.3177 202.892 42.5566C206.83 47.7954 212.585 51.3816 219.032 52.6144C220.527 52.8381 222.036 52.9473 223.547 52.9412C228.294 52.9597 232.97 51.7924 237.149 49.5457L237.663 49.2386L239.282 48.1895C239.783 47.8333 240.265 47.4673 240.753 47.0784C245.082 43.5328 248.166 38.705 249.56 33.2941L235.261 33.3333C234.484 34.664 233.48 35.8486 232.293 36.8333Z" fill="black"/>
<path d="M301.587 0.444459C298.854 0.418315 295.135 0.418315 295.135 0.418315L304.07 13.915C306.503 14.3818 308.752 15.5299 310.554 17.2252C312.357 18.9204 313.637 21.0926 314.247 23.4875C314.856 25.8823 314.769 28.4008 313.996 30.7481C313.223 33.0954 311.795 35.1744 309.88 36.7418C309.644 36.9346 309.398 37.1144 309.149 37.2908L308.349 37.8105C308.137 37.9379 307.92 38.0654 307.694 38.183C306.511 38.8097 305.238 39.2506 303.919 39.4902L295.433 52.3333C295.826 52.4281 296.213 52.5359 296.613 52.6111C298.114 52.8354 299.63 52.9457 301.147 52.9412C305.894 52.9606 310.569 51.7921 314.745 49.5425L315.26 49.2353L316.898 48.1863C317.4 47.8301 317.881 47.4673 318.369 47.0784C321.583 44.4453 324.126 41.0917 325.792 37.2913C327.458 33.4909 328.199 29.3515 327.955 25.2109C327.71 21.0704 326.488 17.0461 324.387 13.4666C322.286 9.88708 319.366 6.85381 315.866 4.61439C311.747 1.9608 307.75 0.444459 301.587 0.444459Z" fill="black"/>
<path d="M299.761 39.5621L292.039 51.2712C288.503 49.9046 285.305 47.7923 282.663 45.0789C280.021 42.3654 277.999 39.1149 276.733 35.5496C275.468 31.9843 274.99 28.1885 275.331 24.4218C275.673 20.6551 276.826 17.0064 278.712 13.7255H269.046V53.1242H255.707V13.7418H243.518L234.701 0.464066L291.029 0.418315L299.876 13.8007C296.751 14.2098 293.88 15.7346 291.796 18.0926C289.711 20.4506 288.554 23.4821 288.539 26.6257C288.523 29.7694 289.65 32.8121 291.711 35.1906C293.772 37.5691 296.627 39.1221 299.748 39.5621H299.761Z" fill="black"/>
<defs>
<linearGradient id="paint0_linear_15_81" x1="0" y1="27" x2="328.066" y2="27" gradientUnits="userSpaceOnUse">
<stop stop-color="#003F76"/>
<stop offset="0.14" stop-color="#05487C"/>
<stop offset="0.37" stop-color="#135F8D"/>
<stop offset="0.66" stop-color="#2B86A8"/>
<stop offset="0.99" stop-color="#4BBCCD"/>
</linearGradient>
</defs>
</svg>
