<svg width="281" height="65" viewBox="0 0 281 65" fill="none" xmlns="http://www.w3.org/2000/svg">
<path d="M144.55 37.0964C148.153 37.0959 151.676 36.0214 154.672 34.0089C157.668 31.9964 160.003 29.1362 161.381 25.7902C162.76 22.4442 163.12 18.7625 162.415 15.2109C161.711 11.6593 159.975 8.39729 157.426 5.83738C154.877 3.27748 151.63 1.53468 148.095 0.82942C144.56 0.124157 140.897 0.488106 137.568 1.87524C134.239 3.26237 131.394 5.61037 129.393 8.62228C127.393 11.6342 126.326 15.1747 126.327 18.7961C126.328 21.2002 126.799 23.5806 127.715 25.8015C128.631 28.0224 129.974 30.0401 131.666 31.7396C133.358 33.439 135.367 34.7867 137.578 35.7059C139.788 36.625 142.157 37.0975 144.55 37.0964ZM144.648 5.95963C147.179 5.96813 149.65 6.73144 151.748 8.15282C153.847 9.5742 155.478 11.5897 156.435 13.9437C157.393 16.2978 157.633 18.8844 157.126 21.3759C156.618 23.8673 155.386 26.1513 153.586 27.9383C151.785 29.7254 149.498 30.9351 147.012 31.414C144.527 31.8929 141.956 31.6196 139.625 30.6286C137.295 29.6376 135.309 27.9736 133.921 25.8475C132.532 23.7214 131.803 21.2289 131.826 18.686C131.852 15.2912 133.215 12.045 135.619 9.65926C138.023 7.27356 141.27 5.94309 144.648 5.95963Z" fill="black"/>
<path d="M278.635 31.1864C278.213 30.8815 277.733 31.0142 277.28 31.0142C270.022 31.0142 262.761 30.986 255.506 31.0368C254.407 31.0368 254.16 30.7092 254.168 29.6588C254.211 22.3681 254.191 15.0745 254.191 7.78374C254.191 6.17141 254.191 6.17141 255.75 6.17141C263.163 6.17141 270.577 6.17141 277.991 6.17141C279.233 6.17141 280.211 5.7168 280.703 4.54214C281.149 3.47762 281.166 2.42156 280.239 1.54621C279.584 0.699108 278.699 0.507097 277.665 0.509921C268.98 0.526863 260.294 0.522156 251.606 0.495802C250.622 0.495802 249.779 0.778171 249.22 1.63939C248.596 2.20413 248.571 2.92417 248.571 3.6781C248.571 7.65196 248.571 11.6268 248.571 15.6025C248.571 21.6038 248.571 27.6041 248.571 33.6035C248.571 35.3147 249.313 36.2606 250.869 36.6164C251.184 36.831 251.544 36.7632 251.887 36.7661H277.626C277.969 36.7661 278.325 36.8366 278.64 36.6192C280.152 36.3143 280.972 35.357 280.972 33.9C280.972 32.443 280.135 31.4745 278.635 31.1864Z" fill="black"/>
<path d="M42.0064 36.6531C42.8747 36.2295 43.2793 35.4474 43.6418 34.6088C47.3322 26.0605 51.0254 17.517 54.7214 8.97816C54.8703 8.63084 54.9153 8.21858 55.3508 7.93622C56.9497 11.6296 58.5401 15.2919 60.1277 18.9486C62.3841 24.2176 64.6321 29.4838 66.9194 34.7302C67.7764 36.7068 69.5579 37.4776 71.2607 36.7293C72.8849 36.0178 73.3766 34.2247 72.4943 32.2425C69.8361 26.2657 67.176 20.2889 64.5141 14.3121C62.7682 10.3966 61.0194 6.48578 59.2679 2.57968C58.439 0.727345 57.02 -0.102819 54.9968 0.0101281C53.0748 0.120252 51.9873 1.23278 51.2568 2.88182C48.2501 9.64172 45.2379 16.3988 42.22 23.1531C40.7925 26.3551 39.3566 29.5515 37.9432 32.7536C37.3616 34.0751 37.5892 35.2751 38.5361 36.1787C38.999 36.6012 39.5784 36.8728 40.198 36.9575C40.8175 37.0422 41.4481 36.936 42.0064 36.6531Z" fill="black"/>
<path d="M199.436 1.89635C198.922 0.857234 198.031 0.529686 196.941 0.529686H173.304C172.722 0.529686 172.132 0.529686 171.674 0.992771C170.457 1.77493 169.968 2.96935 170.328 4.27672C170.51 4.87843 170.876 5.40708 171.375 5.78733C171.873 6.16759 172.479 6.38006 173.104 6.39448C175.633 6.43119 178.162 6.46508 180.669 6.39448C181.742 6.3606 181.995 6.72485 181.936 7.72162C181.852 9.08263 181.913 10.4493 181.913 11.816C181.913 19.1039 181.913 26.3918 181.913 33.6826C181.913 36.0686 184.057 37.5906 186.201 36.7886C187.561 36.2832 188.244 35.1904 188.244 33.4652C188.244 24.8501 188.264 16.2407 188.227 7.62279C188.227 6.64297 188.508 6.36907 189.458 6.39448C191.987 6.4566 194.516 6.45096 197.025 6.39448C199.433 6.35213 200.661 4 199.436 1.89635Z" fill="black"/>
<path d="M23.9947 31.6891C23.9475 31.6096 23.8797 31.5445 23.7985 31.5007C23.7173 31.457 23.6259 31.4362 23.5339 31.4406C23.0253 31.0311 22.4099 31.1723 21.8479 31.1582C17.0007 31.1582 12.1508 31.13 7.30363 31.1582C6.41007 31.1582 6.09535 30.9577 6.1094 30.0005C6.1656 26.3297 6.13469 22.6759 6.13188 19.0135C6.13188 13.8292 6.13188 8.64778 6.13188 3.46632C6.13188 1.91612 5.25237 0.732992 3.95699 0.360265C2.53235 -0.0294035 1.30159 0.433681 0.427699 1.69305C-0.0640409 2.1053 0.0314972 2.67286 0.0314972 3.21219C0.0314972 13.4622 0.0314972 23.7122 0.0314972 33.9621C0.0314972 34.3744 -0.11462 34.8262 0.222573 35.1904C0.321825 35.5244 0.502213 35.8283 0.74748 36.0748C0.992748 36.3213 1.29519 36.5025 1.62754 36.6023C2.15862 37.0117 2.78524 37.0004 3.40343 37.0004H22.0109C22.6262 37.0004 23.2529 37.0287 23.7755 36.5938C25.8183 35.4643 25.9279 33.0529 23.9947 31.6891Z" fill="black"/>
<path d="M223.374 37.023C226.94 37.023 230.506 37.0428 234.072 37.023C235.825 37.023 236.839 36.0517 236.924 34.4478C237.022 32.5644 236.221 31.5846 234.395 31.3728C233.895 31.3121 233.392 31.281 232.889 31.2796C226.497 31.2796 220.102 31.2796 213.705 31.2796C213.086 31.2726 212.468 31.3341 211.862 31.4632C211.46 31.5502 211.09 31.7471 210.792 32.0321C210.495 32.3171 210.282 32.6792 210.176 33.0783C209.493 35.3119 210.738 37.0145 213.036 37.0315C216.476 37.0343 219.924 37.023 223.374 37.023Z" fill="black"/>
<path d="M212.834 6.16859C219.932 6.16859 227.032 6.16859 234.133 6.16859C235.519 6.16859 236.483 5.51632 236.837 4.38967C237.255 3.05689 236.884 1.87658 235.769 0.978652C235.314 0.518392 234.726 0.526863 234.145 0.524039H212.893C212.309 0.524039 211.724 0.524039 211.252 0.947592C210.715 1.33521 210.319 1.88974 210.127 2.5256C209.935 3.16147 209.956 3.84331 210.187 4.46591C210.566 5.54738 211.488 6.16859 212.834 6.16859Z" fill="black"/>
<path d="M233.985 16.0261H212.966C212.626 16.0261 212.264 15.9442 211.971 16.2153C210.53 16.6078 209.99 17.4549 210.066 19.1999C210.128 20.6117 210.8 21.3657 212.222 21.617L234.611 21.6565C234.922 21.6708 235.231 21.6061 235.51 21.4684C235.789 21.3307 236.029 21.1244 236.207 20.8687C237.171 19.8606 237.12 18.686 236.643 17.5198C236.165 16.3536 235.142 16.0261 233.985 16.0261Z" fill="black"/>
<path d="M165.7 60.2704C166.063 60.0728 166.026 59.8102 165.734 59.5278C165.442 59.2454 165.208 58.9885 164.891 59.3838C163.876 60.5867 163.157 59.9288 162.429 59.0421C162.09 58.6186 161.714 58.2264 161.305 57.8703C160.659 57.3055 160.462 56.8594 161.283 56.2495C161.916 55.7812 162.375 55.1131 162.587 54.352C162.742 53.8817 162.731 53.3717 162.556 52.9086C162.38 52.4455 162.051 52.0576 161.623 51.8107C161.076 51.4696 160.44 51.2992 159.796 51.3208C159.153 51.3424 158.53 51.5551 158.006 51.9321C157.133 52.6069 156.86 53.502 157.287 54.5242C157.522 55.0999 157.843 55.636 158.24 56.1139C158.709 56.6533 158.566 56.9187 158.066 57.3084C157.304 57.9042 156.573 58.5564 156.124 59.4515C155.098 61.479 155.95 63.3482 158.155 63.817C159.777 64.1643 161.246 63.7012 162.519 62.7101C163.323 62.0804 163.907 62.0465 164.5 62.9021C165.062 63.6984 165.813 63.8989 166.712 63.625C166.817 63.4951 166.921 63.3624 167.024 63.2268C166.636 62.967 166.223 62.7383 165.863 62.4418C165.045 61.7867 164.194 61.1062 165.7 60.2704ZM158.394 53.7759C158.442 52.8102 159.139 52.6098 159.914 52.4968C160.637 52.6239 161.319 52.8074 161.401 53.6941C161.454 54.2418 160.086 55.953 159.681 55.9191C159.386 55.8909 158.375 54.2418 158.4 53.7759H158.394ZM160.505 62.4023C160.109 62.5364 159.705 62.6467 159.296 62.7327C158.296 62.6931 157.56 62.3712 157.147 61.5863C156.756 60.8436 157.045 60.1744 157.518 59.5419C157.61 59.4177 157.7 59.2934 157.799 59.1777C159.164 57.6472 159.352 57.6444 160.735 59.1042C160.867 59.2454 161.016 59.3866 161.142 59.5165C162.834 61.2248 162.769 61.5326 160.505 62.4023Z" fill="black"/>
<path d="M95.5415 51.5706C95.5415 51.0596 95.6286 50.4835 94.8446 50.5372C94.0606 50.5908 94.3809 51.2262 94.3697 51.6102C94.3304 52.9401 94.3528 54.2729 94.3528 55.7497C91.6693 53.4682 89.2669 53.3863 87.2549 55.3657C85.4622 57.1305 85.3329 60.1659 86.9739 62.182C88.7189 64.3168 91.2535 64.4015 94.2601 62.3628C94.3079 62.5294 94.336 62.6 94.3472 62.6734C94.4231 63.1139 94.1309 63.7746 95.0076 63.7181C95.8 63.6673 95.533 63.0659 95.5358 62.6677C95.5415 58.9687 95.5415 55.2697 95.5415 51.5706ZM90.7646 62.7355C88.7611 62.7355 87.0077 60.934 87.0386 58.8868C87.0534 57.9042 87.445 56.9651 88.1318 56.2655C88.8186 55.5659 89.7476 55.1596 90.7252 55.1313C92.7652 55.1115 94.4034 56.8255 94.395 58.9687C94.4085 59.9514 94.0341 60.8994 93.3538 61.6054C92.6734 62.3113 91.7424 62.7177 90.7646 62.7355Z" fill="black"/>
<path d="M124.588 54.1402C124.026 54.1402 123.956 54.4452 123.97 54.8856C123.97 55.0635 124.034 55.2753 123.829 55.4024C120.811 53.4258 118.507 53.5275 116.633 55.7215C115.861 56.6603 115.452 57.8482 115.484 59.0659C115.515 60.2836 115.984 61.4486 116.804 62.3458C118.712 64.3986 121.07 64.4466 123.897 62.3854C123.937 62.5712 123.961 62.7601 123.97 62.9501C123.936 63.4584 124.057 63.7718 124.664 63.7351C125.226 63.7012 125.271 63.3567 125.271 62.9388C125.271 60.2864 125.271 57.6369 125.271 54.9901C125.273 54.496 125.203 54.1458 124.588 54.1402ZM120.471 62.727C118.476 62.7722 116.712 60.9989 116.695 58.9348C116.695 57.9322 117.09 56.9704 117.794 56.2591C118.497 55.5477 119.451 55.1444 120.449 55.137C122.399 55.1539 124.102 56.9215 124.116 58.9235C124.104 59.9045 123.721 60.8441 123.043 61.5509C122.366 62.2576 121.446 62.6782 120.471 62.727Z" fill="black"/>
<path d="M112.196 54.1458C111.614 54.1035 111.516 54.544 111.353 54.9421C110.547 56.8566 109.732 58.7654 108.785 60.9933C107.697 58.5169 106.739 56.3455 105.671 53.9171C104.589 56.3935 103.626 58.5931 102.563 61.0187C101.645 58.8247 100.804 56.9074 100.035 54.9562C99.7536 54.2136 99.3574 53.9792 98.5228 54.2898C99.835 57.4213 101.139 60.5387 102.549 63.8904C103.637 61.4168 104.601 59.2313 105.66 56.8312L108.751 63.9101C110.156 60.6375 111.418 57.6472 112.685 54.6513C112.896 54.1741 112.522 54.1741 112.196 54.1458Z" fill="black"/>
<path d="M225.501 54.2136C225.348 54.1263 225.169 54.0931 224.995 54.1192C224.82 54.1452 224.659 54.2292 224.538 54.3576C224.392 54.5871 224.276 54.8349 224.195 55.0946C223.385 57.0034 222.579 58.915 221.683 61.0243L218.592 53.8974C217.504 56.3822 216.538 58.596 215.475 61.0187C215.296 60.5951 215.223 60.4285 215.152 60.2648C214.396 58.4294 213.624 56.594 212.885 54.7614C212.671 54.2277 212.297 53.9877 211.806 54.1825C211.171 54.431 211.699 54.8461 211.806 55.1285C212.525 56.9356 213.275 58.7315 214.031 60.5246C214.475 61.5693 214.939 62.6084 215.487 63.865C216.554 61.4253 217.515 59.2369 218.578 56.8199C219.645 59.2511 220.604 61.4422 221.607 63.7294C221.744 63.5937 221.865 63.4432 221.969 63.2805C223.155 60.4888 224.333 57.6933 225.504 54.8941C225.588 54.6908 225.889 54.3717 225.501 54.2136Z" fill="black"/>
<path d="M238.076 55.4334C238.076 54.9901 238.486 54.2249 237.559 54.1656C236.499 54.1007 237.078 54.9873 236.884 55.4278C236.862 55.4843 236.789 55.5153 236.738 55.5605C234.26 53.4879 231.922 53.3947 229.899 55.2979C228.115 56.9724 227.895 59.9485 229.404 62.007C231.048 64.2462 233.403 64.4015 236.794 62.4842C237.14 62.8343 236.513 63.8254 237.55 63.7068C238.587 63.5882 238.062 62.7891 238.073 62.3204C238.129 60.0248 238.118 57.7291 238.076 55.4334ZM233.229 62.7327C231.279 62.6903 229.576 60.9199 229.576 58.9207C229.576 56.9215 231.363 55.0861 233.358 55.1341C233.842 55.1466 234.318 55.2548 234.76 55.4527C235.203 55.6506 235.601 55.9342 235.934 56.2873C236.267 56.6403 236.527 57.0559 236.7 57.5103C236.873 57.9646 236.954 58.4487 236.941 58.9348C236.946 61.0836 235.294 62.7779 233.229 62.7327Z" fill="black"/>
<path d="M74.6664 54.1458C74.2758 54.1458 74.1044 54.3153 74.1044 54.7106C74.1044 54.9562 74.2252 55.2584 73.9302 55.4391C71.0078 53.4173 68.7318 53.4936 66.8182 55.6622C66.0318 56.5905 65.6037 57.7721 65.6119 58.9912C65.6202 60.2104 66.0643 61.3859 66.8632 62.3035C68.6812 64.3732 71.1315 64.4354 74.0651 62.3882C74.0909 62.6188 74.105 62.8507 74.1072 63.0828C74.0847 63.512 74.2365 63.7323 74.7029 63.7294C75.1694 63.7266 75.3042 63.5007 75.3014 63.0743C75.3014 60.3071 75.3014 57.5409 75.3014 54.7755C75.293 54.3237 75.1076 54.143 74.6664 54.1458ZM70.4852 62.7355C68.5182 62.7355 66.8548 61.0102 66.8323 58.9602C66.8245 58.4645 66.9141 57.972 67.0959 57.5111C67.2778 57.0502 67.5483 56.6299 67.8921 56.2742C68.2359 55.9186 68.6461 55.6345 69.0992 55.4384C69.5524 55.2423 70.0396 55.1379 70.533 55.1313C71.0165 55.1368 71.4942 55.2387 71.9383 55.4311C72.3824 55.6235 72.784 55.9026 73.1199 56.2523C73.4558 56.6019 73.7192 57.015 73.895 57.4678C74.0708 57.9205 74.1553 58.4038 74.1437 58.8896C74.1494 61.0469 72.5477 62.7327 70.4852 62.7355Z" fill="black"/>
<path d="M253.606 53.9312C251.173 53.7731 248.984 55.6424 248.607 58.1978C248.276 60.4568 249.495 62.7157 251.479 63.5628C253.598 64.4438 256.138 63.7661 257.408 61.9533C257.602 61.671 258.024 61.3604 257.481 60.9933C257.049 60.7109 256.711 60.7109 256.447 61.2135C256.346 61.3788 256.221 61.5282 256.076 61.6568C254.149 63.5544 250.684 62.7863 249.959 60.341C249.737 59.5956 249.776 59.2115 250.735 59.2511C252.702 59.3188 254.685 59.2878 256.661 59.2511C257.136 59.2511 257.661 59.46 258.085 59.0506C258.085 58.9715 258.085 58.8953 258.085 58.819C258.046 56.1535 256.158 54.0978 253.606 53.9312ZM250.145 57.2773C250.743 55.9219 251.83 55.2697 253.219 55.1454C253.9 55.1144 254.576 55.2801 255.166 55.6229C255.757 55.9656 256.237 56.4711 256.551 57.0797C256.852 57.7319 256.818 58.1075 255.961 58.0736C255.104 58.0397 254.182 58.0736 253.294 58.0736C252.407 58.0736 251.609 58.0736 250.743 58.0736C250.133 58.0849 249.844 57.9663 250.145 57.2773Z" fill="black"/>
<path d="M141.344 53.9962C139.259 53.598 137.129 54.8433 136.246 56.9836C135.297 59.2708 136.218 62.1453 138.269 63.3115C139.31 63.8961 140.525 64.0862 141.693 63.8473C142.862 63.6085 143.906 62.9565 144.637 62.0098C144.836 61.7274 145.297 61.4451 144.822 61.0328C144.347 60.6206 144.03 60.7504 143.698 61.2587C143.382 61.7067 142.949 62.0592 142.448 62.2781C139.95 63.4922 137.868 62.3797 136.991 59.3584C139.455 59.1212 141.925 59.3301 144.39 59.2426C144.738 59.2285 145.297 59.525 145.376 58.8162C145.325 56.2862 143.799 54.4621 141.344 53.9962ZM143.389 58.0708C142.462 58.0708 141.532 58.0708 140.599 58.0708C139.666 58.0708 138.817 58.0482 137.927 58.0708C137.258 58.0934 137.241 57.8166 137.438 57.2914C137.705 56.6615 138.147 56.1222 138.711 55.7381C139.275 55.354 139.937 55.1414 140.619 55.1257C142.024 55.1257 143.476 56.1027 143.937 57.2971C144.168 57.9042 143.968 58.0792 143.392 58.0708H143.389Z" fill="black"/>
<path d="M31.2191 53.9312C28.603 53.9312 26.3916 56.2128 26.3775 58.9122C26.3964 59.8749 26.6979 60.8105 27.2442 61.6015C27.7906 62.3925 28.5574 63.0037 29.4483 63.3581C30.3392 63.7126 31.3144 63.7946 32.2515 63.5938C33.1887 63.393 34.0458 62.9183 34.7154 62.2295C35.3849 61.5407 35.8369 60.6684 36.0146 59.7223C36.1924 58.7761 36.0879 57.7983 35.7143 56.9116C35.3407 56.0249 34.7147 55.269 33.9149 54.7387C33.1151 54.2085 32.1772 53.9275 31.2191 53.9312ZM31.3034 62.7298C29.3729 62.7891 27.5549 60.9848 27.5605 59.0082C27.5605 56.9836 29.2605 55.1737 31.1853 55.137C33.1101 55.1002 34.872 56.8933 34.9113 58.8896C34.9247 59.8755 34.5555 60.8277 33.8819 61.5446C33.2084 62.2615 32.2835 62.6866 31.3034 62.7298Z" fill="black"/>
<path d="M189.441 53.9312C186.761 53.8917 184.524 56.1902 184.532 58.9518C184.559 59.9096 184.865 60.8385 185.413 61.6228C185.961 62.4071 186.726 63.0121 187.614 63.3625C188.501 63.713 189.472 63.7934 190.405 63.5937C191.337 63.3941 192.191 62.9232 192.859 62.2397C193.527 61.5561 193.981 60.6902 194.163 59.7496C194.346 58.809 194.248 57.8353 193.884 56.9498C193.52 56.0642 192.904 55.3059 192.114 54.7691C191.324 54.2324 190.395 53.941 189.441 53.9312ZM189.301 62.727C188.322 62.6731 187.401 62.24 186.733 61.5186C186.065 60.7973 185.701 59.8438 185.718 58.8586C185.786 56.834 187.573 55.0664 189.478 55.137C191.383 55.2076 193.131 57.0881 193.066 59.0365C192.987 61.1062 191.257 62.8033 189.301 62.727Z" fill="black"/>
<path d="M56.6266 54.3915C56.0439 54.744 55.481 55.1286 54.9406 55.5436C54.9406 54.2193 54.9799 53.0503 54.9209 51.8897C54.8956 51.3673 55.3284 50.4779 54.2634 50.4779C53.2996 50.4948 53.6677 51.325 53.6621 51.8248C53.634 55.2923 53.6621 58.7597 53.6621 62.2244C53.6621 62.5068 53.6621 62.7694 53.6621 63.0433C53.6621 63.5431 53.9065 63.721 54.3898 63.7153C54.8732 63.7097 54.9518 63.4329 54.9518 63.0292C54.9518 62.2894 54.9518 61.5495 54.9518 60.8097C54.9518 59.9937 54.9378 59.172 54.9968 58.3588C55.1317 56.4839 56.6462 55.041 58.3322 55.1285C59.8046 55.2076 60.5801 56.2805 60.5998 58.3503C60.6167 59.8299 60.6307 61.3095 60.5998 62.7891C60.583 63.7548 60.9482 63.9666 61.7603 63.4894C61.7603 61.8517 61.7603 60.2083 61.7603 58.5677C61.7603 58.1018 61.78 57.6331 61.7378 57.17C61.4934 54.5299 58.9813 53.1491 56.6266 54.3915Z" fill="black"/>
<path d="M88.2974 36.7406C96.3526 36.7576 104.408 36.7661 112.463 36.7661C113.735 36.7945 114.981 36.3972 116.003 35.6366C118.181 34.6455 119.137 32.779 119.274 30.5539C119.432 28.0691 119.373 25.5645 119.322 23.0712C119.243 19.2451 116.442 16.4948 112.632 16.4186C111.839 16.4016 111.047 16.4186 110.15 16.4186C112.601 12.8974 112.974 11.7793 112.766 8.7692C112.55 5.61797 110.122 2.55709 107.147 1.70999C104.966 0.687813 102.651 0.484507 100.282 0.501449C96.2467 0.529686 92.2117 0.487331 88.1794 0.476036C86.8812 0.476036 85.8359 0.913708 85.2374 2.15331C84.7625 2.65592 84.7906 3.28278 84.7906 3.91246C84.7906 13.7351 84.7962 23.5597 84.8075 33.3861C84.8075 34.7499 85.3695 35.7862 86.6227 36.4018C87.1369 36.7858 87.7354 36.7406 88.2974 36.7406ZM100.189 15.7494C98.8741 15.7832 97.5534 15.7494 96.2383 15.7494C94.8053 15.7494 93.3694 15.7183 91.9391 15.7494C91.2619 15.7691 91.0961 15.5178 91.0961 14.8712C91.1242 12.2357 91.1242 9.59089 91.0961 6.93663C91.0961 6.3493 91.2507 6.10364 91.8801 6.11494C94.9401 6.14882 98.0002 6.13188 101.057 6.15729C101.952 6.17289 102.836 6.35876 103.662 6.70509C105.348 7.40536 106.385 8.59414 106.472 10.4888C106.565 12.4654 105.809 13.962 104.016 14.874C102.823 15.4529 101.514 15.7522 100.189 15.7494ZM112.235 21.9191C113.278 21.9191 113.826 22.4387 113.829 23.4947C113.829 25.5221 113.854 27.5495 113.829 29.5769C113.812 30.777 113.39 31.1667 112.174 31.1695C108.917 31.1695 105.654 31.1695 102.395 31.1695C99.2112 31.1695 96.0304 31.1695 92.8411 31.1695C91.349 31.1695 91.0933 30.8871 91.0905 29.3849C91.0905 27.4084 91.1186 25.4092 91.0905 23.4241C91.068 22.354 91.5935 21.9191 92.5685 21.9191C99.1195 21.9153 105.675 21.9153 112.235 21.9191Z" fill="black"/>
<path d="M201.645 50.4976C200.521 49.7945 198.835 50.6106 198.711 51.9349C198.68 52.3237 198.672 52.7141 198.689 53.1039C198.709 53.6686 198.742 54.2334 197.899 54.1741C197.54 54.1487 197.483 54.4564 197.497 54.7388C197.497 54.9704 197.497 55.2866 197.778 55.2866C198.931 55.2866 198.658 56.1337 198.669 56.7803C198.683 57.715 198.669 58.6524 198.669 59.5899C198.669 60.6403 198.669 61.6936 198.669 62.7468C198.669 63.1901 198.529 63.7351 199.299 63.7125C199.99 63.6871 199.861 63.1901 199.861 62.7863C199.861 60.7222 199.906 58.6524 199.861 56.5883C199.832 55.6678 200.018 55.1765 201.049 55.3261C201.479 55.3911 201.94 55.3854 201.892 54.7134C201.844 54.0414 201.381 54.1656 200.962 54.1487C200.628 54.1233 200.144 54.3153 199.993 53.9651C199.752 53.3425 199.744 52.6534 199.97 52.0253C200.167 51.4097 200.768 51.5368 201.271 51.5989C201.513 51.6271 201.833 51.8812 201.915 51.4351C201.985 51.1076 202.038 50.7348 201.645 50.4976Z" fill="black"/>
<path d="M180.23 58.9913C179.46 58.3955 178.477 58.1442 177.797 57.4157C177.401 56.9921 177.1 56.529 177.465 55.9615C177.831 55.3939 178.395 54.9788 179.132 55.2273C179.558 55.4069 179.963 55.6353 180.337 55.9078C180.646 56.1026 180.834 55.9643 181.028 55.7384C181.222 55.5125 181.309 55.264 181.028 55.0353C180.278 54.3915 179.483 53.8042 178.429 53.9651C177.451 54.1176 176.67 54.6513 176.372 55.6339C176.206 56.0949 176.179 56.5953 176.296 57.0714C176.413 57.5475 176.669 57.978 177.03 58.3079C177.774 59.0308 178.758 59.3386 179.559 59.9542C180.582 60.7391 180.475 61.8743 179.348 62.4814C178.505 62.9388 177.755 62.6536 177.078 62.1482C176.701 61.8658 176.445 61.7783 176.119 62.1905C175.74 62.6705 176.103 62.9021 176.4 63.1308C176.985 63.5804 177.683 63.858 178.415 63.9327C179.039 63.9591 179.655 63.7805 180.169 63.4239C180.683 63.0672 181.068 62.552 181.264 61.9562C181.632 60.79 181.27 59.7989 180.23 58.9913Z" fill="black"/>
<path d="M208.372 54.1628C207.492 54.256 207.301 53.8296 207.372 53.0672C207.401 52.5612 207.401 52.054 207.372 51.548C207.372 51.1047 207.501 50.5485 206.748 50.5682C206.079 50.5852 206.186 51.085 206.186 51.4944C206.186 51.9631 206.16 52.4319 206.186 52.9062C206.231 53.6715 206.217 54.3435 205.132 54.1684C204.772 54.1091 204.542 54.2786 204.548 54.6908C204.548 55.0297 204.601 55.3939 205.017 55.3318C206.363 55.12 206.2 56.0179 206.183 56.8453C206.166 57.6726 206.183 58.5593 206.183 59.4148C206.183 60.5443 206.183 61.6738 206.183 62.8033C206.183 63.2014 206.042 63.7012 206.745 63.7238C207.501 63.7492 207.38 63.2183 207.38 62.7666C207.38 60.6601 207.405 58.5593 207.38 56.4528C207.38 55.6989 207.518 55.2527 208.397 55.3374C208.827 55.3798 209.389 55.5069 209.386 54.7388C209.383 53.9708 208.782 54.1233 208.372 54.1628Z" fill="black"/>
<path d="M43.5575 54.1656C41.9896 54.448 42.1329 53.406 42.1694 52.4206C42.1863 52.0337 42.1525 51.6412 42.1694 51.2544C42.2031 50.7574 41.9755 50.5485 41.5006 50.5287C40.9724 50.5061 40.9752 50.8675 40.9752 51.229C40.9752 51.8925 40.9358 52.5561 40.9752 53.2056C41.0145 53.855 40.8094 54.2334 40.0732 54.1458C39.6461 54.095 39.3145 54.1797 39.3257 54.7473C39.337 55.3148 39.6882 55.3798 40.1013 55.329C40.8768 55.2358 40.9948 55.6537 40.9752 56.3031C40.9358 57.3535 40.9752 58.404 40.9752 59.4544C40.9752 60.5838 40.9752 61.7133 40.9752 62.8428C40.9752 63.2692 40.8993 63.7238 41.5737 63.721C42.2481 63.7181 42.1638 63.2551 42.1638 62.8315C42.1638 60.886 42.1834 58.9405 42.1638 56.9949C42.1638 56.0321 41.9924 55.0184 43.5154 55.3261C43.8975 55.4024 44.0577 55.1398 44.0605 54.7614C44.0633 54.383 43.9762 54.0894 43.5575 54.1656Z" fill="black"/>
<path d="M82.5286 53.9538C81.6856 54.0216 81.0927 54.6287 80.3031 55.4391C80.3959 54.592 80.3565 54.0272 79.5613 54.1543C78.7661 54.2814 79.0611 54.9224 79.0471 55.3657C79.0078 56.4951 79.033 57.6246 79.033 58.7541C79.033 60.1151 79.033 61.479 79.033 62.84C79.033 63.3708 79.1117 63.7605 79.7861 63.7266C80.4605 63.6927 80.32 63.2014 80.334 62.8033C80.3481 62.3345 80.32 61.8658 80.334 61.3914C80.3931 59.9598 80.1514 58.5028 80.5898 57.0994C80.9017 56.097 81.4131 55.1595 82.6298 55.2104C83.2648 55.2358 83.5964 54.9449 83.5908 54.496C83.5852 53.8917 82.9754 53.9312 82.5286 53.9538Z" fill="black"/>
<path d="M245.03 53.9595C244.221 54.064 243.679 54.6456 243.047 55.2725C242.858 54.7219 243.047 53.9849 242.167 54.143C241.524 54.2588 241.63 54.7078 241.628 55.1144C241.628 57.7235 241.628 60.3297 241.628 62.936C241.628 63.4442 241.777 63.7407 242.358 63.7266C242.94 63.7125 242.92 63.3426 242.92 62.936C242.92 61.6907 242.92 60.4455 242.92 59.2031C242.92 58.1809 242.982 57.1785 243.513 56.2664C243.892 55.6198 244.426 55.1172 245.177 55.2047C245.879 55.2894 246.227 54.9224 246.168 54.4254C246.109 53.9284 245.502 53.9002 245.03 53.9595Z" fill="black"/>
<path d="M132.312 53.9736C131.537 54.1035 130.936 54.6118 130.264 55.4024C130.168 54.7416 130.362 54.0724 129.57 54.1458C128.71 54.2277 129.05 54.8715 129.028 55.2979C128.983 56.2664 129.013 57.2406 129.013 58.2091C129.013 59.7254 129.013 61.2418 129.013 62.7553C129.013 63.2014 128.881 63.7379 129.64 63.721C130.329 63.704 130.202 63.2155 130.202 62.8089C130.202 62.343 130.202 61.8743 130.202 61.3971C130.261 59.9683 130.025 58.5169 130.449 57.1135C130.758 56.1055 131.292 55.1511 132.478 55.2104C133.2 55.2471 133.529 54.8772 133.495 54.448C133.45 53.8352 132.77 53.8974 132.312 53.9736Z" fill="black"/>
<path d="M22.6262 57.4157C22.6262 55.5106 22.6262 53.6056 22.6262 51.7005C22.6262 51.3109 22.6853 50.9127 22.0839 50.8845C21.4264 50.8562 21.4405 51.2572 21.4405 51.7118C21.4405 55.4485 21.4405 59.1824 21.4405 62.9134C21.4405 63.2946 21.3674 63.6984 21.9772 63.7238C22.5869 63.7492 22.6291 63.3595 22.6291 62.8993C22.6234 61.0695 22.6262 59.2426 22.6262 57.4157Z" fill="black"/>
<path d="M49.1774 61.527C48.9273 61.3942 48.6407 61.2841 48.489 61.6286C48.09 62.5463 47.7134 63.4725 47.3425 64.4043C47.2357 64.6697 47.3987 64.8278 47.6376 64.9352C47.8342 65.0255 48.0338 65.0424 48.1433 64.8476C48.6548 63.944 49.1465 63.0292 49.5877 62.2216C49.6916 61.7331 49.4022 61.6484 49.1774 61.527Z" fill="black"/>
</svg>
