<svg width="196" height="60" viewBox="0 0 196 60" fill="none" xmlns="http://www.w3.org/2000/svg">
<path d="M82.2096 31.5668C79.0306 20.1496 67.4354 13.2129 55.75 15.7043C44.6742 18.0666 36.946 28.8253 38.3827 39.9475C39.2137 46.3683 42.3203 51.4956 47.5397 55.3137C51.736 58.3834 56.487 59.7219 61.6946 59.5089C66.5005 59.3135 70.8849 58.0669 74.5579 54.79C76.6708 52.9083 77.0765 50.1278 75.4438 47.8182C73.8641 45.5848 71.3592 45.106 68.8172 46.5461C68.4008 46.8009 68.0032 47.0849 67.6274 47.3961C65.7792 48.8304 63.6213 49.3189 61.334 49.4752C56.3635 49.8171 51.6615 46.9956 49.7701 42.4955C49.5095 41.8741 49.5095 41.8741 50.1876 41.8741H64.223C68.6656 41.8741 73.1082 41.8741 77.5508 41.8741C77.98 41.8741 78.4112 41.8507 78.8385 41.8097C80.9337 41.6045 82.5919 40.1038 82.8721 38.0326C83.17 35.8343 82.7957 33.6752 82.2096 31.5668ZM71.9139 33.4973C64.5575 33.4973 57.2024 33.5013 49.8485 33.5091C49.3076 33.5091 49.1782 33.427 49.3821 32.8877C51.0108 28.5596 54.2036 26.1523 58.7057 25.4449C61.5888 24.9936 64.4033 25.3511 67.0277 26.7014C69.8265 28.1414 71.6513 30.3905 72.5646 33.4973H71.9139Z" fill="black"/>
<path d="M43.8059 9.99469C43.3981 10.0432 42.9877 10.0674 42.577 10.067C38.2651 10.067 33.9669 10.0787 29.6588 10.067C29.1943 10.067 29.0807 10.1881 29.0807 10.6532C29.0937 18.0393 29.0976 25.4261 29.0924 32.8135C29.0924 39.9781 29.0924 47.1493 29.0924 54.327C29.0924 57.3557 26.8678 59.5187 23.8456 59.4738C22.58 59.4406 21.374 58.9311 20.4697 58.0478C19.5655 57.1644 19.0301 55.9727 18.9711 54.7119C18.9613 54.4598 18.9711 54.2039 18.9711 53.9518C18.9711 39.5482 18.9757 25.146 18.9848 10.745C18.9848 10.1764 18.8476 10.0533 18.289 10.0572C13.9438 10.0826 9.59656 10.0787 5.25326 10.0689C2.74449 10.0611 0.755121 8.63471 0.182809 6.34267C-0.783458 2.47571 2.26822 0 4.93574 0C16.1703 0.0449419 27.4068 0.017586 38.6473 0.017586C40.2153 0.017586 41.7832 0 43.3512 0.0273559C45.8678 0.0683899 47.9826 2.19434 48.0963 4.75798C48.1982 7.3822 46.3108 9.69964 43.8059 9.99469Z" fill="black"/>
<path d="M130.511 51.4351C130.12 52.3519 129.537 53.1752 128.802 53.8502C125.666 56.8496 121.889 58.5222 117.642 59.2315C116.431 59.417 115.209 59.5189 113.985 59.5363C103.93 59.5109 95.1984 53.3793 92.327 44.1974C88.313 31.3519 96.051 18.5219 108.944 15.7277C114.708 14.4772 120.255 15.2509 125.433 18.1702C126.849 18.9685 128.131 19.981 129.235 21.1716C130.733 22.7816 131.423 24.6458 130.658 26.801C130.403 27.509 129.993 28.1515 129.458 28.6822C128.923 29.2129 128.276 29.6186 127.565 29.8698C126.854 30.1211 126.095 30.2118 125.345 30.1352C124.594 30.0587 123.87 29.8168 123.224 29.4272C122.385 28.9231 121.623 28.3134 120.831 27.7428C113.213 22.2502 103.816 26.5021 101.751 34.7284C100.561 39.4629 102.323 43.326 105.8 46.5129C110.327 50.6593 117.023 49.9793 120.843 46.8549C121.558 46.2495 122.314 45.6939 123.106 45.192C125.178 43.9278 127.273 44.1271 129.265 45.788C130.86 47.1167 131.356 49.3619 130.511 51.4351Z" fill="black"/>
<path d="M195.998 35.9203C196.007 38.7678 195.639 41.604 194.904 44.3557C194.363 46.4445 192.607 47.7967 190.494 47.7654C189.498 47.7454 188.538 47.3871 187.773 46.7497C187.008 46.1124 186.485 45.2342 186.288 44.26C186.153 43.5103 186.187 42.7399 186.388 42.0051C188.544 32.7763 186.241 24.7864 179.438 18.1995C175.342 14.229 170.297 12.1578 164.591 11.724C160.011 11.3762 155.697 12.3278 151.614 14.4009C148.957 15.7512 145.962 14.4693 145.201 11.6829C144.939 10.7245 145.014 9.70528 145.415 8.79557C145.815 7.88585 146.517 7.14072 147.402 6.68462C150.806 4.87472 154.509 3.68934 158.333 3.18501C167.133 2.0341 175.189 4.01741 182.345 9.20527C189.816 14.6198 194.193 21.9961 195.645 31.09C195.9 32.6872 196.018 34.3032 195.998 35.9203Z" fill="black"/>
<path d="M184.207 55.6166C184.189 57.6624 182.868 58.9697 180.816 58.9814C180.151 58.9814 179.485 58.9814 178.819 58.9814C176.945 58.9638 175.663 57.7504 175.536 55.8823C175.525 55.8164 175.51 55.7511 175.491 55.6869C169.023 60.0229 162.073 61.1835 154.662 58.741C149.027 56.8828 144.764 53.2698 141.908 48.0722C136.238 37.7629 139.662 25.8494 147.132 19.7725C147.002 21.4549 147.338 22.979 148.286 24.337C149.209 25.662 150.584 26.6062 152.155 26.9925C148.988 30.2596 147.518 34.1363 147.992 38.6403C148.384 42.3138 150.056 45.3718 152.853 47.8123C158.188 52.4707 167.668 52.7305 173.197 45.8583C174.983 50.2118 180.475 51.6148 184.209 48.1738V51.5855C184.209 52.9259 184.216 54.2722 184.207 55.6166Z" fill="black"/>
<path d="M183.605 44.9419C182.741 47.2867 180.273 48.4689 177.947 47.6482C175.663 46.8412 174.487 44.3889 175.289 42.0363C176.978 37.0673 176.326 32.4442 173.068 28.3115C168.972 23.1138 161.896 21.5643 155.873 24.4191C153.994 25.3082 152.132 25.0913 150.742 23.8329C150.213 23.3506 149.81 22.7469 149.568 22.0742C149.326 21.4016 149.253 20.6802 149.354 19.9727C149.455 19.2652 149.727 18.593 150.148 18.0143C150.568 17.4356 151.124 16.968 151.767 16.652C154.226 15.3924 156.902 14.6087 159.654 14.3423C165.834 13.7561 171.414 15.3369 176.284 19.1746C181.233 23.0826 184.056 28.2372 184.838 34.4861C184.883 34.7552 184.914 35.0265 184.93 35.2989C184.944 35.9027 184.93 36.5046 184.93 37.1083C184.991 39.7797 184.541 42.4381 183.605 44.9419Z" fill="black"/>
<path d="M162.206 26.1523C160.038 26.1458 157.916 26.7797 156.109 27.9739C154.302 29.1682 152.89 30.8694 152.051 32.8628C151.213 34.8562 150.985 37.0525 151.397 39.1747C151.809 41.2969 152.843 43.2498 154.367 44.7871C155.891 46.3244 157.838 47.3772 159.962 47.8127C162.086 48.2481 164.291 48.0467 166.3 47.2339C168.309 46.421 170.032 45.0331 171.251 43.2454C172.47 41.4576 173.13 39.35 173.148 37.1885C173.221 31.1721 168.27 26.1835 162.206 26.1523ZM162.165 46.339C160.335 46.3386 158.546 45.7974 157.024 44.7837C155.502 43.77 154.316 42.3293 153.615 40.6438C152.914 38.9582 152.731 37.1034 153.087 35.3137C153.443 33.524 154.324 31.8797 155.617 30.5887C156.91 29.2977 158.558 28.4179 160.353 28.0604C162.148 27.7029 164.009 27.8839 165.7 28.5803C167.392 29.2768 168.838 30.4575 169.857 31.9733C170.876 33.4892 171.421 35.272 171.424 37.0966C171.411 39.5419 170.432 41.8835 168.698 43.6137C166.965 45.3439 164.618 46.3231 162.165 46.339Z" fill="black"/>
</svg>
