<svg width="345" height="68" viewBox="0 0 345 68" fill="none" xmlns="http://www.w3.org/2000/svg">
<path d="M140.436 39.6161C140.436 46.068 139.277 50.7666 136.959 53.7118C134.64 56.657 130.809 58.1261 125.463 58.1193C120.118 58.1193 116.288 56.6501 113.972 53.7118C111.655 50.7735 110.496 46.0749 110.494 39.6161V14.8111H107.444V39.7605C107.444 43.5354 107.797 46.7613 108.503 49.4384C109.209 52.1154 110.302 54.3123 111.781 56.029C113.291 57.7616 115.233 59.0662 117.411 59.8107C119.688 60.6221 122.371 61.0278 125.46 61.0278C128.549 61.0278 131.234 60.6301 133.516 59.8348C135.687 59.095 137.619 57.7892 139.112 56.053C140.57 54.3295 141.652 52.1303 142.358 49.4556C143.064 46.7808 143.417 43.5549 143.417 39.7777V14.8111H140.436V39.6161Z" fill="black"/>
<path d="M172.452 56.9675L154.674 14.8111H150.572V60.6943H153.37V18.3935L171.083 60.6943H173.943L191.596 18.3935V60.6943H194.394V14.8111H190.23L172.452 56.9675Z" fill="black"/>
<path d="M217.219 14.8111L198.738 60.6943H201.843L206.083 50.1569H231.92L236.16 60.6943H239.265L221.063 14.8111H217.219ZM207.018 47.6472L219.093 17.6062L231.168 47.6472H207.018Z" fill="black"/>
<path d="M274.289 14.8111H270.184L246.996 35.8893V14.8111H243.95V60.6943H246.996V37.6805L271.177 60.6943H275.283L249.777 36.6766L274.289 14.8111Z" fill="black"/>
<path d="M279.982 60.6943H308.337V57.8992H282.966V38.54H306.35V35.8893H282.966V17.6062H308.337V14.8111H279.982V60.6943Z" fill="black"/>
<path d="M321.54 41.9092H328.44C334.107 41.9092 338.191 40.7988 340.691 38.5778C343.191 36.3569 344.438 33.0461 344.431 28.6455C344.418 27.0819 344.262 25.5226 343.965 23.9871C343.653 22.3369 342.915 20.7964 341.823 19.5177C340.693 18.1425 339.041 17.0183 336.865 16.1451C334.689 15.2718 331.726 14.8306 327.974 14.8214H314.164V60.6943H317.107V41.3385L340.073 60.6943H345L321.54 41.9092ZM317.124 17.6062H328.13C331.2 17.6062 333.615 17.95 335.375 18.6376C337.134 19.3252 338.476 20.2145 339.401 21.3055C340.284 22.3131 340.88 23.5383 341.126 24.8534C341.353 26.1013 341.469 27.3669 341.471 28.6352C341.474 29.8743 341.386 31.112 341.205 32.3379C341.009 33.612 340.454 34.8044 339.604 35.7759C338.73 36.8073 337.419 37.6438 335.671 38.2856C333.923 38.9274 331.513 39.2517 328.44 39.2585H317.107L317.124 17.6062Z" fill="black"/>
<path d="M83.1735 23.4232V15.4609C83.1707 12.6212 82.037 9.89866 80.0214 7.89132C78.0057 5.88397 75.273 4.75597 72.4233 4.75506H52.2305C51.9037 3.4001 51.1286 2.19422 50.0303 1.33164C48.932 0.469064 47.5742 0 46.1758 0C44.7774 0 43.4196 0.469064 42.3213 1.33164C41.223 2.19422 40.4479 3.4001 40.1211 4.75506H19.9214C17.0702 4.75414 14.3353 5.88124 12.3176 7.88868C10.2999 9.89612 9.16453 12.6197 9.16087 15.4609V23.2926C6.47592 24.2667 4.15668 26.0403 2.51787 28.3728C0.879049 30.7053 0 33.4837 0 36.3311C0 39.1785 0.879049 41.957 2.51787 44.2895C4.15668 46.622 6.47592 48.3956 9.16087 49.3696V57.277C9.16361 60.1201 10.2982 62.8459 12.3156 64.8563C14.333 66.8666 17.0684 67.9973 19.9214 68H72.4233C75.2745 67.9945 78.0073 66.8627 80.0224 64.8526C82.0376 62.8426 83.1707 60.1183 83.1735 57.277V49.3112C85.7988 48.3047 88.0565 46.5291 89.6489 44.2184C91.2413 41.9077 92.0937 39.1703 92.0937 36.3672C92.0937 33.5641 91.2413 30.8268 89.6489 28.516C88.0565 26.2053 85.7988 24.4297 83.1735 23.4232ZM80.3859 57.2838C80.3841 59.3874 79.5451 61.4045 78.0531 62.8926C76.5611 64.3807 74.5377 65.2185 72.4268 65.2221H19.9214C17.8101 65.2185 15.7864 64.3808 14.2938 62.8928C12.8012 61.4048 11.9615 59.3878 11.9588 57.2838V15.4609C11.9679 13.3618 12.8106 11.3516 14.3027 9.8699C15.7948 8.38816 17.8149 7.55537 19.9214 7.55357H72.4233C74.5301 7.55446 76.5507 8.38697 78.043 9.8689C79.5352 11.3508 80.3777 13.3615 80.3859 15.4609V57.2838Z" fill="black"/>
<path d="M61.9974 23.217C59.3882 23.2204 56.8386 23.9945 54.6707 25.4415C52.5029 26.8886 50.8142 28.9435 49.818 31.3467C48.8219 33.7499 48.563 36.3935 49.0742 38.9432C49.5853 41.493 50.8435 43.8345 52.6897 45.6719C54.5359 47.5093 56.8872 48.76 59.4466 49.266C62.0059 49.772 64.6584 49.5106 67.0686 48.5148C69.4789 47.519 71.5389 45.8335 72.9881 43.6713C74.4374 41.5091 75.2109 38.9674 75.2109 36.3672C75.2072 32.8777 73.8134 29.5324 71.3357 27.0665C68.858 24.6007 65.4992 23.2161 61.9974 23.217ZM61.9974 45.9454C60.0964 45.9454 58.2381 45.3837 56.6575 44.3312C55.0769 43.2787 53.8449 41.7828 53.1174 40.0326C52.3899 38.2824 52.1996 36.3566 52.5705 34.4986C52.9413 32.6406 53.8568 30.9339 55.201 29.5944C56.5452 28.2549 58.2578 27.3426 60.1223 26.9731C61.9868 26.6035 63.9194 26.7932 65.6757 27.5181C67.432 28.2431 68.9331 29.4707 69.9893 31.0459C71.0454 32.621 71.6091 34.4728 71.6091 36.3672C71.6064 38.9067 70.5928 41.3413 68.7909 43.137C66.9889 44.9327 64.5458 45.9427 61.9974 45.9454Z" fill="black"/>
<path d="M26.8421 27.9407C25.1688 27.9401 23.5329 28.4339 22.1413 29.3598C20.7498 30.2856 19.665 31.602 19.0242 33.1423C18.3834 34.6826 18.2153 36.3777 18.5414 38.0131C18.8674 39.6486 19.6728 41.151 20.8557 42.3303C22.0386 43.5096 23.5459 44.3128 25.187 44.6383C26.8281 44.9639 28.5291 44.7971 30.0751 44.1592C31.621 43.5213 32.9424 42.4408 33.8721 41.0544C34.8018 39.668 35.298 38.0381 35.298 36.3707C35.2962 34.1361 34.4048 31.9935 32.8195 30.413C31.2342 28.8326 29.0845 27.9435 26.8421 27.9407ZM26.8421 43.0059C25.5243 43.0059 24.2362 42.6165 23.1405 41.8869C22.0449 41.1572 21.191 40.1202 20.6869 38.9069C20.1828 37.6937 20.0511 36.3587 20.3084 35.0708C20.5657 33.7829 21.2006 32.6 22.1326 31.6717C23.0646 30.7434 24.252 30.1114 25.5445 29.8556C26.837 29.5999 28.1766 29.7318 29.3939 30.2348C30.6111 30.7378 31.6513 31.5893 32.3829 32.6814C33.1145 33.7736 33.5047 35.0575 33.504 36.3707C33.5012 38.1302 32.7984 39.8168 31.5495 41.0607C30.3007 42.3046 28.6078 43.0041 26.8421 43.0059Z" fill="black"/>
</svg>
