<svg id="Capa_1" data-name="Capa 1" xmlns="http://www.w3.org/2000/svg" viewBox="0 0 1080 1080"><title>0Isotipo-jof</title><path d="M134.15,871.84q-18.83-2.57-25.67-4.44T90,861.76l20.53-96.54a87.14,87.14,0,0,0,28.77,5.13q15.39,0,19.66-9.4c2.86-6.29,4.29-16.83,4.29-31.68V385.63H288.18V743q0,44.16-12.66,73.41T237.7,860.05q-25.15,14.36-63.5,14.37A297.17,297.17,0,0,1,134.15,871.84Zm40.74-544.57q-20.2-19.35-20.19-48.44A64.12,64.12,0,0,1,189.45,221q16.58-8.91,37.12-8.89,31.5,0,51.68,19t20.2,47.74q0,29.44-20.2,48.59T226.57,346.6Q195.1,346.6,174.89,327.27Z"/><path d="M429.16,713.7q-42.95-22.43-66.74-63.14t-23.8-93.12q0-52.35,23.8-93.09T429.16,401q42.94-22.59,97.73-22.6T624.43,401q42.8,22.59,66.76,63.32t23.95,93.09q0,52.39-23.95,93.12T624.43,713.7q-42.76,22.44-97.54,22.44T429.16,713.7ZM571.38,606.23q17.8-19.35,17.79-48.79,0-30.12-17.44-49.1t-44.84-19a61.08,61.08,0,0,0-25,5.14,59.2,59.2,0,0,0-19.86,14,63.25,63.25,0,0,0-12.82,21.57,79,79,0,0,0-4.62,27.37,80,80,0,0,0,3.06,22.26,65.41,65.41,0,0,0,8.73,18.82,66.71,66.71,0,0,0,13.36,14.38,56.91,56.91,0,0,0,17.1,9.42,61.19,61.19,0,0,0,20,3.24Q553.59,625.56,571.38,606.23Z"/><path d="M776.75,484.88H745.61V385.63h31.14v-49q0-64.69,31.84-97.9t85.92-33.19q32.15,0,58.7,9.75T990,233.64l-21.57,84.89a74.78,74.78,0,0,0-18.49-6.68,81.6,81.6,0,0,0-17.79-2.56q-14,0-21.91,6.33t-7.87,22.76v47.25H958.5v99.25H902.37V728.94H776.75Z"/></svg>