<svg xmlns="http://www.w3.org/2000/svg" viewBox="0 0 900 668.88"><defs><style>.cls-1{fill:#fff;}</style></defs><title>Recurso 1Isotipo-Blanco</title><g id="Capa_2" data-name="Capa 2"><g id="Capa_1-2" data-name="Capa 1"><path class="cls-1" d="M44.15,666.3q-18.82-2.56-25.67-4.44T0,656.22l20.53-96.54a87.11,87.11,0,0,0,28.77,5.13q15.39,0,19.66-9.4c2.86-6.29,4.29-16.83,4.29-31.68V180.09H198.18V537.46q0,44.16-12.66,73.41T147.7,654.51q-25.15,14.36-63.5,14.37A298.05,298.05,0,0,1,44.15,666.3ZM84.89,121.73Q64.69,102.38,64.7,73.29A64.12,64.12,0,0,1,99.45,15.46Q116,6.55,136.57,6.57q31.5,0,51.68,19t20.2,47.74q0,29.44-20.2,48.59t-51.68,19.16q-31.47,0-51.68-19.33Z"/><path class="cls-1" d="M339.16,508.16Q296.21,485.73,272.42,445t-23.8-93.12q0-52.35,23.8-93.09t66.74-63.35q42.94-22.59,97.73-22.6t97.54,22.6q42.8,22.59,66.76,63.32t23.95,93.09q0,52.39-23.95,93.12t-66.76,63.17q-42.76,22.44-97.54,22.44T339.16,508.16ZM481.38,400.69q17.81-19.35,17.79-48.79,0-30.12-17.44-49.1t-44.84-19a61.11,61.11,0,0,0-25,5.14,59.11,59.11,0,0,0-19.86,14,63.29,63.29,0,0,0-12.82,21.57,79,79,0,0,0-4.62,27.37,80.15,80.15,0,0,0,3.06,22.26A65.46,65.46,0,0,0,386.38,393a66.6,66.6,0,0,0,13.36,14.38,56.85,56.85,0,0,0,17.1,9.42,61.26,61.26,0,0,0,20,3.24Q463.59,420,481.38,400.69Z"/><path class="cls-1" d="M686.75,279.34H655.61V180.09h31.14v-49q0-64.7,31.84-97.9T804.51,0q32.15,0,58.7,9.75T900,28.1L878.43,113a74.65,74.65,0,0,0-18.49-6.68,81.59,81.59,0,0,0-17.79-2.56q-14,0-21.91,6.33t-7.87,22.76v47.25H868.5v99.25H812.37V523.4H686.75Z"/></g></g></svg>