<svg width="75" height="75" viewBox="0 0 75 75" fill="none" xmlns="http://www.w3.org/2000/svg">
<path fill-rule="evenodd" clip-rule="evenodd" d="M75 0H0V75H75V0ZM37.391 28.1694C37.391 35.0031 31.6183 35.4357 31.6183 35.4357C39.2272 35.4357 38.7032 44.9184 38.7032 44.9183C38.7032 56.5735 26.6858 56.1903 26.6858 56.1903H7V18H26.6858C32.6682 18 37.391 21.3352 37.391 28.1694ZM26.6858 24.7879H25.2688H15.6738V33.3105H26.003C27.788 33.3105 29.3617 32.7345 29.3617 28.7614C29.3617 24.7879 26.6858 24.7879 26.6858 24.7879ZM15.6738 49.4027H26.1295C27.6952 49.3689 30.6741 48.9086 30.6741 44.4416C30.6741 39.144 26.6858 39.1968 26.6858 39.1968H15.6738V49.4027ZM40.1951 42.3906C40.1951 42.3906 40.1822 27.7167 54.7306 27.7167C70.0422 27.7167 67.8973 44.2949 67.8973 44.295H48.2943C48.2943 51.3897 54.9526 50.9393 54.9526 50.9393C61.24 50.9393 61.018 46.8338 61.018 46.8338H67.6752C67.6752 57.7357 54.7306 56.9892 54.7306 56.9892C39.1969 56.9892 40.1951 42.3906 40.1951 42.3906ZM54.8785 33.3104C49.0341 33.3104 48.2211 39.1968 48.2211 39.1968H60.6485C60.6485 39.1968 60.7217 33.3104 54.8785 33.3104ZM46.5913 24.9528H62.1993V20.2499H46.5913V24.9528Z" fill="white"/>
</svg>
