<?xml version="1.0" encoding="utf-8"?>
<!-- Generator: Adobe Illustrator 27.8.1, SVG Export Plug-In . SVG Version: 6.00 Build 0)  -->
<svg version="1.1" id="Capa_1" xmlns="http://www.w3.org/2000/svg" xmlns:xlink="http://www.w3.org/1999/xlink" x="0px" y="0px"
	 viewBox="0 0 75 75" style="enable-background:new 0 0 75 75;" xml:space="preserve">
<style type="text/css">
	.st0{fill-rule:evenodd;clip-rule:evenodd;fill:#6FCBFF;}
	.st1{fill-rule:evenodd;clip-rule:evenodd;fill:#FFFFFF;}
</style>
<g>
	<rect class="st0" width="75" height="75"/>
	<g>
		<rect x="46.6" y="18.9" class="st1" width="15.6" height="5.1"/>
		<path class="st1" d="M54.7,27c-14.5,0-14.5,15.7-14.5,15.8c0,0-1,15.7,14.5,15.7c0,0,12.9,0.8,12.9-10.9H61c0,0,0.2,4.4-6.1,4.4
			c0,0-6.7,0.5-6.7-7.2h19.6C67.9,44.8,70,27,54.7,27z M48.2,39.3c0,0,0.8-6.3,6.7-6.3c5.8,0,5.8,6.3,5.8,6.3H48.2z"/>
		<path class="st1" d="M31.6,35.3c0,0,5.8-0.5,5.8-7.8c0-7.4-4.7-11-10.7-11H7v41.1h19.7c0,0,12,0.4,12-12.1
			C38.7,45.5,39.2,35.3,31.6,35.3z M15.7,23.8h11c0,0,2.7,0,2.7,4.3c0,4.3-1.6,4.9-3.4,4.9H15.7V23.8z M26.1,50.3H15.7v-11h11
			c0,0,4-0.1,4,5.6C30.7,49.8,27.7,50.3,26.1,50.3z"/>
	</g>
</g>
</svg>
