<?xml version="1.0" encoding="UTF-8"?><svg id="Capa_2" xmlns="http://www.w3.org/2000/svg" viewBox="0 0 51 49"><defs><style>.cls-1,.cls-2{fill:#fff;stroke-width:0px;}.cls-2{fill-rule:evenodd;}</style></defs><g id="Capa_1-2"><path class="cls-2" d="m51,30.04v18.96h-10.93v-17.67c0-4.98-1.84-7.47-5.51-7.47-1.41,0-2.59.38-3.52,1.16-.94.78-1.63,1.72-2.09,2.85-.27.62-.4,1.51-.4,2.67v18.46h-10.93c.07-9.97.1-17.7.1-23.21s-.03-8.8-.1-9.85h10.93v4.7c2.37-3.66,5.66-5.49,9.9-5.49,3.77,0,6.81,1.26,9.1,3.78,2.3,2.53,3.45,6.23,3.45,11.11Z"/><rect class="cls-1" x=".64" y="15.94" width="10.93" height="33.06"/><path class="cls-2" d="m12.31,5.84c0,1.58-.56,2.9-1.68,3.96-1.15,1.09-2.66,1.63-4.53,1.63h-.04c-1.81,0-3.27-.54-4.39-1.63-1.11-1.09-1.67-2.46-1.67-4.11S.57,2.68,1.72,1.61C2.87.54,4.36,0,6.2,0s3.27.53,4.38,1.58c1.15,1.09,1.73,2.51,1.73,4.26Z"/></g></svg>