<?xml version="1.0" encoding="UTF-8"?><svg id="Capa_2" xmlns="http://www.w3.org/2000/svg" viewBox="0 0 61 42"><defs><style>.cls-1,.cls-2{fill:#fff;stroke-width:0px;}.cls-2{fill-rule:evenodd;}</style></defs><g id="Capa_1-2"><rect class="cls-1" x="39.59" y="2.42" width="15.61" height="5.06"/><path class="cls-2" d="m47.73,10.47c-14.51,0-14.53,15.71-14.53,15.8,0,0-1,15.72,14.53,15.72,0,0,12.95.81,12.95-10.94h-6.66s.22,4.43-6.07,4.43c0,0-6.66.48-6.66-7.16h19.61s2.14-17.84-13.17-17.84Zm-6.51,12.36s.81-6.34,6.66-6.34,5.77,6.34,5.77,6.34h-12.43Z"/><path class="cls-2" d="m24.62,18.78s5.77-.47,5.77-7.83S25.67,0,19.69,0H0v41.13h19.69s12.01.41,12.01-12.14c0,0,.53-10.21-7.08-10.21ZM8.67,7.31h11.02s2.67,0,2.67,4.28-1.57,4.9-3.36,4.9h-10.33V7.31Zm10.46,26.5h-10.46v-10.98h11.02s3.98-.06,3.98,5.64c0,4.81-2.97,5.31-4.54,5.34Z"/></g></svg>