<svg width="75" height="75" viewBox="0 0 75 75" fill="none" xmlns="http://www.w3.org/2000/svg">
<path fill-rule="evenodd" clip-rule="evenodd" d="M75 0H0V75H75V0ZM13.723 14.6086C12.5743 15.6809 12 17.0421 12 18.6919C12 20.3417 12.5579 21.7111 13.6737 22.8C14.7896 23.8889 16.25 24.4333 18.055 24.4333H18.1042C19.9749 24.4333 21.4846 23.8889 22.6332 22.8C23.7491 21.7441 24.3069 20.4242 24.3069 18.8404C24.3069 17.0915 23.7326 15.6727 22.584 14.5838C21.4681 13.5279 20.0077 13 18.2027 13C16.3649 13 14.8716 13.5362 13.723 14.6086ZM12.64 28.9374V62H23.5685V28.9374H12.64ZM40.5521 62H29.6236C29.6892 52.035 29.722 44.2973 29.722 38.7869C29.722 33.2764 29.6892 29.9932 29.6236 28.9374H40.5521V33.6394L40.5029 33.7384H40.5521V33.6394C42.9151 29.9768 46.2133 28.1455 50.4469 28.1455C54.2211 28.1455 57.2567 29.4076 59.5541 31.9318C61.8514 34.4561 63 38.1599 63 43.0434V62H52.0714V44.3303C52.0714 39.3478 50.2336 36.8566 46.5579 36.8566C45.1467 36.8566 43.9735 37.2443 43.0381 38.0197C42.1028 38.7951 41.4054 39.7438 40.9459 40.8657C40.6834 41.4926 40.5521 42.3835 40.5521 43.5384V62Z" fill="white"/>
</svg>
