<?xml version="1.0" encoding="utf-8"?>
<!-- Generator: Adobe Illustrator 27.8.1, SVG Export Plug-In . SVG Version: 6.00 Build 0)  -->
<svg version="1.1" id="Capa_1" xmlns="http://www.w3.org/2000/svg" xmlns:xlink="http://www.w3.org/1999/xlink" x="0px" y="0px"
	 viewBox="0 0 75 75" style="enable-background:new 0 0 75 75;" xml:space="preserve">
<style type="text/css">
	.st0{fill-rule:evenodd;clip-rule:evenodd;fill:#1D88FF;}
	.st1{fill-rule:evenodd;clip-rule:evenodd;fill:#FFFFFF;}
</style>
<rect class="st0" width="75" height="75"/>
<g>
	<path class="st1" d="M63,43v19H52.1V44.3c0-5-1.8-7.5-5.5-7.5c-1.4,0-2.6,0.4-3.5,1.2c-0.9,0.8-1.6,1.7-2.1,2.8
		c-0.3,0.6-0.4,1.5-0.4,2.7V62H29.6c0.1-10,0.1-17.7,0.1-23.2c0-5.5,0-8.8-0.1-9.8h10.9v4.7c2.4-3.7,5.7-5.5,9.9-5.5
		c3.8,0,6.8,1.3,9.1,3.8C61.8,34.5,63,38.2,63,43z"/>
	<rect x="12.6" y="28.9" class="st1" width="10.9" height="33.1"/>
	<path class="st1" d="M24.3,18.8c0,1.6-0.6,2.9-1.7,4c-1.2,1.1-2.7,1.6-4.5,1.6h0c-1.8,0-3.3-0.5-4.4-1.6c-1.1-1.1-1.7-2.5-1.7-4.1
		s0.6-3,1.7-4.1c1.2-1.1,2.6-1.6,4.5-1.6c1.8,0,3.3,0.5,4.4,1.6C23.7,15.7,24.3,17.1,24.3,18.8z"/>
</g>
</svg>
